<mxfile host="app.diagrams.net" modified="2023-07-10T09:22:52.319Z" agent="Mozilla/5.0 (Windows NT 10.0; Win64; x64) AppleWebKit/537.36 (KHTML, like Gecko) Chrome/114.0.0.0 Safari/537.36" etag="sd1Wi3UqoiuKwAi_B3tU" version="21.6.1" type="github" pages="4">
  <diagram name="Page-1" id="qbW0ORCX8JkchQik_K8l">
    <mxGraphModel dx="1434" dy="764" grid="1" gridSize="10" guides="1" tooltips="1" connect="1" arrows="1" fold="1" page="1" pageScale="1" pageWidth="850" pageHeight="1100" math="0" shadow="0">
      <root>
        <mxCell id="0" />
        <mxCell id="1" parent="0" />
        <mxCell id="RM-bNVfqa5ODe0-vAXZo-143" value="เริ่ม" style="ellipse;whiteSpace=wrap;html=1;" vertex="1" parent="1">
          <mxGeometry x="70" y="40" width="80" height="40" as="geometry" />
        </mxCell>
        <mxCell id="RM-bNVfqa5ODe0-vAXZo-144" value="ตรวจสอบสิทธิ์การใช้งาน" style="rounded=1;whiteSpace=wrap;html=1;" vertex="1" parent="1">
          <mxGeometry x="40" y="120" width="140" height="30" as="geometry" />
        </mxCell>
        <mxCell id="RM-bNVfqa5ODe0-vAXZo-145" value="" style="edgeStyle=orthogonalEdgeStyle;rounded=0;orthogonalLoop=1;jettySize=auto;html=1;" edge="1" parent="1" source="RM-bNVfqa5ODe0-vAXZo-143" target="RM-bNVfqa5ODe0-vAXZo-144">
          <mxGeometry relative="1" as="geometry" />
        </mxCell>
        <mxCell id="RM-bNVfqa5ODe0-vAXZo-146" value="มี ?" style="rhombus;whiteSpace=wrap;html=1;" vertex="1" parent="1">
          <mxGeometry x="80" y="180" width="60" height="60" as="geometry" />
        </mxCell>
        <mxCell id="RM-bNVfqa5ODe0-vAXZo-147" value="" style="edgeStyle=orthogonalEdgeStyle;rounded=0;orthogonalLoop=1;jettySize=auto;html=1;" edge="1" parent="1" source="RM-bNVfqa5ODe0-vAXZo-144" target="RM-bNVfqa5ODe0-vAXZo-146">
          <mxGeometry relative="1" as="geometry" />
        </mxCell>
        <mxCell id="RM-bNVfqa5ODe0-vAXZo-148" style="edgeStyle=orthogonalEdgeStyle;rounded=0;orthogonalLoop=1;jettySize=auto;html=1;entryX=-0.022;entryY=0.676;entryDx=0;entryDy=0;entryPerimeter=0;" edge="1" parent="1" source="RM-bNVfqa5ODe0-vAXZo-146" target="RM-bNVfqa5ODe0-vAXZo-162">
          <mxGeometry relative="1" as="geometry">
            <Array as="points">
              <mxPoint x="110" y="644" />
            </Array>
            <mxPoint x="265" y="750" as="targetPoint" />
          </mxGeometry>
        </mxCell>
        <mxCell id="RM-bNVfqa5ODe0-vAXZo-149" value="ไม่" style="edgeLabel;html=1;align=center;verticalAlign=middle;resizable=0;points=[];" vertex="1" connectable="0" parent="RM-bNVfqa5ODe0-vAXZo-148">
          <mxGeometry x="-0.8925" y="1" relative="1" as="geometry">
            <mxPoint as="offset" />
          </mxGeometry>
        </mxCell>
        <mxCell id="RM-bNVfqa5ODe0-vAXZo-150" value="ตรวจสอบ Account &lt;br&gt;สถานะการใช้งาน" style="rounded=1;whiteSpace=wrap;html=1;" vertex="1" parent="1">
          <mxGeometry x="256.35" y="189" width="170" height="40" as="geometry" />
        </mxCell>
        <mxCell id="RM-bNVfqa5ODe0-vAXZo-151" value="" style="edgeStyle=orthogonalEdgeStyle;rounded=0;orthogonalLoop=1;jettySize=auto;html=1;" edge="1" parent="1" source="RM-bNVfqa5ODe0-vAXZo-146" target="RM-bNVfqa5ODe0-vAXZo-150">
          <mxGeometry relative="1" as="geometry">
            <Array as="points">
              <mxPoint x="220" y="210" />
              <mxPoint x="220" y="210" />
            </Array>
          </mxGeometry>
        </mxCell>
        <mxCell id="RM-bNVfqa5ODe0-vAXZo-152" value="ใช่" style="edgeLabel;html=1;align=center;verticalAlign=middle;resizable=0;points=[];" vertex="1" connectable="0" parent="RM-bNVfqa5ODe0-vAXZo-151">
          <mxGeometry x="-0.7797" y="-1" relative="1" as="geometry">
            <mxPoint as="offset" />
          </mxGeometry>
        </mxCell>
        <mxCell id="RM-bNVfqa5ODe0-vAXZo-153" value="มีใน&lt;br&gt;ระบบ &lt;br&gt;?" style="rhombus;whiteSpace=wrap;html=1;" vertex="1" parent="1">
          <mxGeometry x="303.85" y="268" width="75" height="70" as="geometry" />
        </mxCell>
        <mxCell id="RM-bNVfqa5ODe0-vAXZo-154" value="" style="edgeStyle=orthogonalEdgeStyle;rounded=0;orthogonalLoop=1;jettySize=auto;html=1;" edge="1" parent="1" source="RM-bNVfqa5ODe0-vAXZo-150" target="RM-bNVfqa5ODe0-vAXZo-153">
          <mxGeometry relative="1" as="geometry" />
        </mxCell>
        <mxCell id="RM-bNVfqa5ODe0-vAXZo-155" value="status&lt;br style=&quot;border-color: var(--border-color);&quot;&gt;= 1 ?" style="rhombus;whiteSpace=wrap;html=1;" vertex="1" parent="1">
          <mxGeometry x="311.35" y="388" width="60" height="60" as="geometry" />
        </mxCell>
        <mxCell id="RM-bNVfqa5ODe0-vAXZo-156" value="" style="edgeStyle=orthogonalEdgeStyle;rounded=0;orthogonalLoop=1;jettySize=auto;html=1;" edge="1" parent="1" source="RM-bNVfqa5ODe0-vAXZo-153" target="RM-bNVfqa5ODe0-vAXZo-155">
          <mxGeometry relative="1" as="geometry" />
        </mxCell>
        <mxCell id="RM-bNVfqa5ODe0-vAXZo-157" value="ใช่" style="edgeLabel;html=1;align=center;verticalAlign=middle;resizable=0;points=[];" vertex="1" connectable="0" parent="RM-bNVfqa5ODe0-vAXZo-156">
          <mxGeometry x="-0.3254" y="2" relative="1" as="geometry">
            <mxPoint x="-2" as="offset" />
          </mxGeometry>
        </mxCell>
        <mxCell id="RM-bNVfqa5ODe0-vAXZo-158" value="Locked&lt;br style=&quot;border-color: var(--border-color);&quot;&gt;= 1 ?&amp;nbsp;" style="rhombus;whiteSpace=wrap;html=1;" vertex="1" parent="1">
          <mxGeometry x="311.35" y="518" width="60" height="60" as="geometry" />
        </mxCell>
        <mxCell id="RM-bNVfqa5ODe0-vAXZo-159" value="" style="edgeStyle=orthogonalEdgeStyle;rounded=0;orthogonalLoop=1;jettySize=auto;html=1;" edge="1" parent="1" source="RM-bNVfqa5ODe0-vAXZo-155" target="RM-bNVfqa5ODe0-vAXZo-158">
          <mxGeometry relative="1" as="geometry" />
        </mxCell>
        <mxCell id="RM-bNVfqa5ODe0-vAXZo-160" value="ไม่" style="edgeLabel;html=1;align=center;verticalAlign=middle;resizable=0;points=[];" vertex="1" connectable="0" parent="RM-bNVfqa5ODe0-vAXZo-159">
          <mxGeometry x="-0.3745" relative="1" as="geometry">
            <mxPoint as="offset" />
          </mxGeometry>
        </mxCell>
        <mxCell id="RM-bNVfqa5ODe0-vAXZo-161" style="edgeStyle=orthogonalEdgeStyle;rounded=0;orthogonalLoop=1;jettySize=auto;html=1;entryX=0;entryY=0.5;entryDx=0;entryDy=0;" edge="1" parent="1" source="RM-bNVfqa5ODe0-vAXZo-162" target="RM-bNVfqa5ODe0-vAXZo-206">
          <mxGeometry relative="1" as="geometry">
            <Array as="points">
              <mxPoint x="239" y="1230" />
            </Array>
          </mxGeometry>
        </mxCell>
        <mxCell id="RM-bNVfqa5ODe0-vAXZo-162" value="1" style="ellipse;whiteSpace=wrap;html=1;aspect=fixed;" vertex="1" parent="1">
          <mxGeometry x="213.75" y="610" width="50" height="50" as="geometry" />
        </mxCell>
        <mxCell id="RM-bNVfqa5ODe0-vAXZo-163" style="edgeStyle=orthogonalEdgeStyle;rounded=0;orthogonalLoop=1;jettySize=auto;html=1;" edge="1" parent="1" source="RM-bNVfqa5ODe0-vAXZo-164" target="RM-bNVfqa5ODe0-vAXZo-162">
          <mxGeometry relative="1" as="geometry">
            <Array as="points">
              <mxPoint x="140" y="303" />
              <mxPoint x="140" y="630" />
            </Array>
          </mxGeometry>
        </mxCell>
        <mxCell id="RM-bNVfqa5ODe0-vAXZo-164" value="rerturn Error Code&amp;nbsp;001&lt;span style=&quot;font-size: medium; text-align: start;&quot;&gt;&lt;/span&gt;" style="rounded=1;whiteSpace=wrap;html=1;" vertex="1" parent="1">
          <mxGeometry x="150" y="283" width="77.5" height="40" as="geometry" />
        </mxCell>
        <mxCell id="RM-bNVfqa5ODe0-vAXZo-165" style="edgeStyle=orthogonalEdgeStyle;rounded=0;orthogonalLoop=1;jettySize=auto;html=1;" edge="1" parent="1" source="RM-bNVfqa5ODe0-vAXZo-153" target="RM-bNVfqa5ODe0-vAXZo-164">
          <mxGeometry relative="1" as="geometry">
            <mxPoint x="240.10000000000002" y="408" as="targetPoint" />
          </mxGeometry>
        </mxCell>
        <mxCell id="RM-bNVfqa5ODe0-vAXZo-166" value="ไม่" style="edgeLabel;html=1;align=center;verticalAlign=middle;resizable=0;points=[];" vertex="1" connectable="0" parent="RM-bNVfqa5ODe0-vAXZo-165">
          <mxGeometry x="-0.6573" y="2" relative="1" as="geometry">
            <mxPoint as="offset" />
          </mxGeometry>
        </mxCell>
        <mxCell id="RM-bNVfqa5ODe0-vAXZo-167" style="edgeStyle=orthogonalEdgeStyle;rounded=0;orthogonalLoop=1;jettySize=auto;html=1;entryX=0.5;entryY=0;entryDx=0;entryDy=0;" edge="1" parent="1" source="RM-bNVfqa5ODe0-vAXZo-168" target="RM-bNVfqa5ODe0-vAXZo-162">
          <mxGeometry relative="1" as="geometry" />
        </mxCell>
        <mxCell id="RM-bNVfqa5ODe0-vAXZo-168" value="rerturn Error Code&amp;nbsp;011&lt;span style=&quot;font-size: medium; text-align: start;&quot;&gt;&lt;/span&gt;" style="rounded=1;whiteSpace=wrap;html=1;" vertex="1" parent="1">
          <mxGeometry x="200" y="528" width="77.5" height="40" as="geometry" />
        </mxCell>
        <mxCell id="RM-bNVfqa5ODe0-vAXZo-169" value="" style="edgeStyle=orthogonalEdgeStyle;rounded=0;orthogonalLoop=1;jettySize=auto;html=1;" edge="1" parent="1" source="RM-bNVfqa5ODe0-vAXZo-158" target="RM-bNVfqa5ODe0-vAXZo-168">
          <mxGeometry relative="1" as="geometry" />
        </mxCell>
        <mxCell id="RM-bNVfqa5ODe0-vAXZo-170" value="ใช่" style="edgeLabel;html=1;align=center;verticalAlign=middle;resizable=0;points=[];" vertex="1" connectable="0" parent="RM-bNVfqa5ODe0-vAXZo-169">
          <mxGeometry x="-0.4608" y="1" relative="1" as="geometry">
            <mxPoint as="offset" />
          </mxGeometry>
        </mxCell>
        <mxCell id="RM-bNVfqa5ODe0-vAXZo-171" style="edgeStyle=orthogonalEdgeStyle;rounded=0;orthogonalLoop=1;jettySize=auto;html=1;" edge="1" parent="1" source="RM-bNVfqa5ODe0-vAXZo-172" target="RM-bNVfqa5ODe0-vAXZo-162">
          <mxGeometry relative="1" as="geometry">
            <mxPoint x="240" y="610" as="targetPoint" />
            <Array as="points">
              <mxPoint x="180" y="418" />
              <mxPoint x="180" y="620" />
            </Array>
          </mxGeometry>
        </mxCell>
        <mxCell id="RM-bNVfqa5ODe0-vAXZo-172" value="rerturn Error Code&amp;nbsp;004&lt;span style=&quot;font-size: medium; text-align: start;&quot;&gt;&lt;/span&gt;" style="rounded=1;whiteSpace=wrap;html=1;" vertex="1" parent="1">
          <mxGeometry x="200" y="398" width="77.5" height="40" as="geometry" />
        </mxCell>
        <mxCell id="RM-bNVfqa5ODe0-vAXZo-173" value="" style="edgeStyle=orthogonalEdgeStyle;rounded=0;orthogonalLoop=1;jettySize=auto;html=1;" edge="1" parent="1" source="RM-bNVfqa5ODe0-vAXZo-155" target="RM-bNVfqa5ODe0-vAXZo-172">
          <mxGeometry relative="1" as="geometry" />
        </mxCell>
        <mxCell id="RM-bNVfqa5ODe0-vAXZo-174" value="ใช่" style="edgeLabel;html=1;align=center;verticalAlign=middle;resizable=0;points=[];" vertex="1" connectable="0" parent="RM-bNVfqa5ODe0-vAXZo-173">
          <mxGeometry x="-0.4608" y="2" relative="1" as="geometry">
            <mxPoint as="offset" />
          </mxGeometry>
        </mxCell>
        <mxCell id="RM-bNVfqa5ODe0-vAXZo-175" value="" style="edgeStyle=orthogonalEdgeStyle;rounded=0;orthogonalLoop=1;jettySize=auto;html=1;entryX=0.1;entryY=0.5;entryDx=0;entryDy=0;entryPerimeter=0;" edge="1" parent="1" source="RM-bNVfqa5ODe0-vAXZo-158" target="RM-bNVfqa5ODe0-vAXZo-180">
          <mxGeometry relative="1" as="geometry">
            <mxPoint x="414" y="548" as="targetPoint" />
          </mxGeometry>
        </mxCell>
        <mxCell id="RM-bNVfqa5ODe0-vAXZo-176" value="" style="edgeStyle=orthogonalEdgeStyle;rounded=0;orthogonalLoop=1;jettySize=auto;html=1;" edge="1" parent="1" source="RM-bNVfqa5ODe0-vAXZo-180">
          <mxGeometry relative="1" as="geometry">
            <mxPoint x="530" y="548" as="targetPoint" />
          </mxGeometry>
        </mxCell>
        <mxCell id="RM-bNVfqa5ODe0-vAXZo-177" value="ไม่" style="edgeLabel;html=1;align=center;verticalAlign=middle;resizable=0;points=[];" vertex="1" connectable="0" parent="RM-bNVfqa5ODe0-vAXZo-176">
          <mxGeometry x="-0.3115" y="3" relative="1" as="geometry">
            <mxPoint as="offset" />
          </mxGeometry>
        </mxCell>
        <mxCell id="RM-bNVfqa5ODe0-vAXZo-178" style="edgeStyle=orthogonalEdgeStyle;rounded=0;orthogonalLoop=1;jettySize=auto;html=1;entryX=0.5;entryY=0;entryDx=0;entryDy=0;" edge="1" parent="1" source="RM-bNVfqa5ODe0-vAXZo-180" target="RM-bNVfqa5ODe0-vAXZo-203">
          <mxGeometry relative="1" as="geometry">
            <mxPoint x="447" y="940" as="targetPoint" />
          </mxGeometry>
        </mxCell>
        <mxCell id="RM-bNVfqa5ODe0-vAXZo-179" value="ใช่" style="edgeLabel;html=1;align=center;verticalAlign=middle;resizable=0;points=[];" vertex="1" connectable="0" parent="RM-bNVfqa5ODe0-vAXZo-178">
          <mxGeometry x="-0.3215" y="2" relative="1" as="geometry">
            <mxPoint as="offset" />
          </mxGeometry>
        </mxCell>
        <mxCell id="RM-bNVfqa5ODe0-vAXZo-180" value="Super&lt;br&gt;Admin ?" style="rhombus;whiteSpace=wrap;html=1;" vertex="1" parent="1">
          <mxGeometry x="414" y="512" width="66" height="72" as="geometry" />
        </mxCell>
        <mxCell id="RM-bNVfqa5ODe0-vAXZo-181" value="" style="edgeStyle=orthogonalEdgeStyle;rounded=0;orthogonalLoop=1;jettySize=auto;html=1;" edge="1" parent="1" source="RM-bNVfqa5ODe0-vAXZo-182" target="RM-bNVfqa5ODe0-vAXZo-187">
          <mxGeometry relative="1" as="geometry" />
        </mxCell>
        <mxCell id="RM-bNVfqa5ODe0-vAXZo-182" value="ตรวจสอบสิทธิ์การใช้งาน Company นี้ไหม&lt;span style=&quot;font-size: medium; text-align: start;&quot;&gt;&lt;/span&gt;" style="rounded=1;whiteSpace=wrap;html=1;" vertex="1" parent="1">
          <mxGeometry x="530" y="528" width="110" height="42" as="geometry" />
        </mxCell>
        <mxCell id="RM-bNVfqa5ODe0-vAXZo-183" value="" style="edgeStyle=orthogonalEdgeStyle;rounded=0;orthogonalLoop=1;jettySize=auto;html=1;" edge="1" parent="1" source="RM-bNVfqa5ODe0-vAXZo-187" target="RM-bNVfqa5ODe0-vAXZo-191">
          <mxGeometry relative="1" as="geometry" />
        </mxCell>
        <mxCell id="RM-bNVfqa5ODe0-vAXZo-184" value="ใช่" style="edgeLabel;html=1;align=center;verticalAlign=middle;resizable=0;points=[];" vertex="1" connectable="0" parent="RM-bNVfqa5ODe0-vAXZo-183">
          <mxGeometry x="-0.2859" relative="1" as="geometry">
            <mxPoint as="offset" />
          </mxGeometry>
        </mxCell>
        <mxCell id="RM-bNVfqa5ODe0-vAXZo-185" style="edgeStyle=orthogonalEdgeStyle;rounded=0;orthogonalLoop=1;jettySize=auto;html=1;" edge="1" parent="1" source="RM-bNVfqa5ODe0-vAXZo-187" target="RM-bNVfqa5ODe0-vAXZo-193">
          <mxGeometry relative="1" as="geometry">
            <mxPoint x="680" y="645.9999999999998" as="targetPoint" />
          </mxGeometry>
        </mxCell>
        <mxCell id="RM-bNVfqa5ODe0-vAXZo-186" value="ไม่" style="edgeLabel;html=1;align=center;verticalAlign=middle;resizable=0;points=[];" vertex="1" connectable="0" parent="RM-bNVfqa5ODe0-vAXZo-185">
          <mxGeometry x="-0.0865" y="2" relative="1" as="geometry">
            <mxPoint as="offset" />
          </mxGeometry>
        </mxCell>
        <mxCell id="RM-bNVfqa5ODe0-vAXZo-187" value="มี ?" style="rhombus;whiteSpace=wrap;html=1;" vertex="1" parent="1">
          <mxGeometry x="552" y="610" width="66" height="72" as="geometry" />
        </mxCell>
        <mxCell id="RM-bNVfqa5ODe0-vAXZo-188" value="ใช่" style="edgeStyle=orthogonalEdgeStyle;rounded=0;orthogonalLoop=1;jettySize=auto;html=1;" edge="1" parent="1" source="RM-bNVfqa5ODe0-vAXZo-191" target="RM-bNVfqa5ODe0-vAXZo-197">
          <mxGeometry relative="1" as="geometry" />
        </mxCell>
        <mxCell id="RM-bNVfqa5ODe0-vAXZo-189" value="" style="edgeStyle=orthogonalEdgeStyle;rounded=0;orthogonalLoop=1;jettySize=auto;html=1;" edge="1" parent="1" source="RM-bNVfqa5ODe0-vAXZo-191" target="RM-bNVfqa5ODe0-vAXZo-199">
          <mxGeometry relative="1" as="geometry" />
        </mxCell>
        <mxCell id="RM-bNVfqa5ODe0-vAXZo-190" value="ไม่" style="edgeLabel;html=1;align=center;verticalAlign=middle;resizable=0;points=[];" vertex="1" connectable="0" parent="RM-bNVfqa5ODe0-vAXZo-189">
          <mxGeometry x="-0.1127" relative="1" as="geometry">
            <mxPoint as="offset" />
          </mxGeometry>
        </mxCell>
        <mxCell id="RM-bNVfqa5ODe0-vAXZo-191" value="Company &lt;br&gt;มีในระบบ&lt;br&gt;ไหม ?" style="rhombus;whiteSpace=wrap;html=1;" vertex="1" parent="1">
          <mxGeometry x="540" y="740" width="90" height="80" as="geometry" />
        </mxCell>
        <mxCell id="RM-bNVfqa5ODe0-vAXZo-192" style="edgeStyle=orthogonalEdgeStyle;rounded=0;orthogonalLoop=1;jettySize=auto;html=1;entryX=1;entryY=0.5;entryDx=0;entryDy=0;" edge="1" parent="1" source="RM-bNVfqa5ODe0-vAXZo-193" target="RM-bNVfqa5ODe0-vAXZo-205">
          <mxGeometry relative="1" as="geometry">
            <mxPoint x="780" y="800" as="targetPoint" />
            <Array as="points">
              <mxPoint x="778" y="646" />
              <mxPoint x="778" y="1015" />
            </Array>
          </mxGeometry>
        </mxCell>
        <mxCell id="RM-bNVfqa5ODe0-vAXZo-193" value="rerturn Error Code&amp;nbsp;002&lt;span style=&quot;font-size: medium; text-align: start;&quot;&gt;&lt;/span&gt;" style="rounded=1;whiteSpace=wrap;html=1;" vertex="1" parent="1">
          <mxGeometry x="680" y="626" width="77.5" height="40" as="geometry" />
        </mxCell>
        <mxCell id="RM-bNVfqa5ODe0-vAXZo-194" value="" style="edgeStyle=orthogonalEdgeStyle;rounded=0;orthogonalLoop=1;jettySize=auto;html=1;" edge="1" parent="1" source="RM-bNVfqa5ODe0-vAXZo-197" target="RM-bNVfqa5ODe0-vAXZo-201">
          <mxGeometry relative="1" as="geometry" />
        </mxCell>
        <mxCell id="RM-bNVfqa5ODe0-vAXZo-195" value="ไม่" style="edgeLabel;html=1;align=center;verticalAlign=middle;resizable=0;points=[];" vertex="1" connectable="0" parent="RM-bNVfqa5ODe0-vAXZo-194">
          <mxGeometry x="-0.2152" y="2" relative="1" as="geometry">
            <mxPoint as="offset" />
          </mxGeometry>
        </mxCell>
        <mxCell id="RM-bNVfqa5ODe0-vAXZo-196" style="edgeStyle=orthogonalEdgeStyle;rounded=0;orthogonalLoop=1;jettySize=auto;html=1;entryX=1;entryY=0.5;entryDx=0;entryDy=0;" edge="1" parent="1" source="RM-bNVfqa5ODe0-vAXZo-197" target="RM-bNVfqa5ODe0-vAXZo-203">
          <mxGeometry relative="1" as="geometry">
            <Array as="points">
              <mxPoint x="585" y="980" />
            </Array>
          </mxGeometry>
        </mxCell>
        <mxCell id="RM-bNVfqa5ODe0-vAXZo-197" value="Company &lt;br&gt;Active ?" style="rhombus;whiteSpace=wrap;html=1;" vertex="1" parent="1">
          <mxGeometry x="540" y="860" width="90" height="80" as="geometry" />
        </mxCell>
        <mxCell id="RM-bNVfqa5ODe0-vAXZo-198" style="edgeStyle=orthogonalEdgeStyle;rounded=0;orthogonalLoop=1;jettySize=auto;html=1;entryX=1;entryY=0;entryDx=0;entryDy=0;" edge="1" parent="1" source="RM-bNVfqa5ODe0-vAXZo-199" target="RM-bNVfqa5ODe0-vAXZo-205">
          <mxGeometry relative="1" as="geometry">
            <Array as="points">
              <mxPoint x="770" y="780" />
              <mxPoint x="770" y="997" />
            </Array>
          </mxGeometry>
        </mxCell>
        <mxCell id="RM-bNVfqa5ODe0-vAXZo-199" value="rerturn Error Code&amp;nbsp;007&lt;span style=&quot;font-size: medium; text-align: start;&quot;&gt;&lt;/span&gt;" style="rounded=1;whiteSpace=wrap;html=1;" vertex="1" parent="1">
          <mxGeometry x="680" y="760" width="77.5" height="40" as="geometry" />
        </mxCell>
        <mxCell id="RM-bNVfqa5ODe0-vAXZo-200" style="edgeStyle=orthogonalEdgeStyle;rounded=0;orthogonalLoop=1;jettySize=auto;html=1;" edge="1" parent="1" source="RM-bNVfqa5ODe0-vAXZo-201" target="RM-bNVfqa5ODe0-vAXZo-205">
          <mxGeometry relative="1" as="geometry" />
        </mxCell>
        <mxCell id="RM-bNVfqa5ODe0-vAXZo-201" value="rerturn Error Code&amp;nbsp;051&lt;span style=&quot;font-size: medium; text-align: start;&quot;&gt;&lt;/span&gt;" style="rounded=1;whiteSpace=wrap;html=1;" vertex="1" parent="1">
          <mxGeometry x="680" y="880" width="77.5" height="40" as="geometry" />
        </mxCell>
        <mxCell id="RM-bNVfqa5ODe0-vAXZo-202" value="" style="edgeStyle=orthogonalEdgeStyle;rounded=0;orthogonalLoop=1;jettySize=auto;html=1;" edge="1" parent="1" source="RM-bNVfqa5ODe0-vAXZo-203" target="RM-bNVfqa5ODe0-vAXZo-208">
          <mxGeometry relative="1" as="geometry" />
        </mxCell>
        <mxCell id="RM-bNVfqa5ODe0-vAXZo-203" value="ดึงข้อมูลสำคัญทางการเงิน" style="rounded=1;whiteSpace=wrap;html=1;" vertex="1" parent="1">
          <mxGeometry x="387" y="950" width="120" height="40" as="geometry" />
        </mxCell>
        <mxCell id="RM-bNVfqa5ODe0-vAXZo-204" style="edgeStyle=orthogonalEdgeStyle;rounded=0;orthogonalLoop=1;jettySize=auto;html=1;" edge="1" parent="1" source="RM-bNVfqa5ODe0-vAXZo-205" target="RM-bNVfqa5ODe0-vAXZo-206">
          <mxGeometry relative="1" as="geometry">
            <Array as="points">
              <mxPoint x="719" y="1230" />
            </Array>
          </mxGeometry>
        </mxCell>
        <mxCell id="RM-bNVfqa5ODe0-vAXZo-205" value="2" style="ellipse;whiteSpace=wrap;html=1;aspect=fixed;" vertex="1" parent="1">
          <mxGeometry x="693.75" y="990" width="50" height="50" as="geometry" />
        </mxCell>
        <mxCell id="RM-bNVfqa5ODe0-vAXZo-206" value="สิ้นสุด" style="ellipse;whiteSpace=wrap;html=1;" vertex="1" parent="1">
          <mxGeometry x="395.5" y="1200" width="103" height="60" as="geometry" />
        </mxCell>
        <mxCell id="RM-bNVfqa5ODe0-vAXZo-207" style="edgeStyle=orthogonalEdgeStyle;rounded=0;orthogonalLoop=1;jettySize=auto;html=1;" edge="1" parent="1" source="RM-bNVfqa5ODe0-vAXZo-208" target="RM-bNVfqa5ODe0-vAXZo-206">
          <mxGeometry relative="1" as="geometry">
            <Array as="points">
              <mxPoint x="447" y="1140" />
              <mxPoint x="447" y="1140" />
            </Array>
          </mxGeometry>
        </mxCell>
        <mxCell id="RM-bNVfqa5ODe0-vAXZo-208" value="ส่งกลับมูลสำคัญทางการเงิน" style="rounded=1;whiteSpace=wrap;html=1;" vertex="1" parent="1">
          <mxGeometry x="387" y="1130" width="120" height="40" as="geometry" />
        </mxCell>
        <mxCell id="RM-bNVfqa5ODe0-vAXZo-209" value="กรองข้อมูลสำคัญทางการเงินที่ซ้ำกันด้วยปี" style="rounded=1;whiteSpace=wrap;html=1;" vertex="1" parent="1">
          <mxGeometry x="387" y="1040" width="133" height="50" as="geometry" />
        </mxCell>
      </root>
    </mxGraphModel>
  </diagram>
  <diagram id="i-NJOyOfVKlHUtVFLoNP" name="Page-2">
    <mxGraphModel dx="1434" dy="764" grid="1" gridSize="10" guides="1" tooltips="1" connect="1" arrows="1" fold="1" page="1" pageScale="1" pageWidth="850" pageHeight="1100" math="0" shadow="0">
      <root>
        <mxCell id="0" />
        <mxCell id="1" parent="0" />
        <mxCell id="DRDyODUOUIoeHpMh8hU9-1" value="เริ่ม" style="ellipse;whiteSpace=wrap;html=1;" vertex="1" parent="1">
          <mxGeometry x="75" y="20" width="80" height="40" as="geometry" />
        </mxCell>
        <mxCell id="DRDyODUOUIoeHpMh8hU9-2" value="ตรวจสอบสิทธิ์การใช้งาน" style="rounded=1;whiteSpace=wrap;html=1;" vertex="1" parent="1">
          <mxGeometry x="45" y="100" width="140" height="30" as="geometry" />
        </mxCell>
        <mxCell id="DRDyODUOUIoeHpMh8hU9-3" value="" style="edgeStyle=orthogonalEdgeStyle;rounded=0;orthogonalLoop=1;jettySize=auto;html=1;" edge="1" parent="1" source="DRDyODUOUIoeHpMh8hU9-1" target="DRDyODUOUIoeHpMh8hU9-2">
          <mxGeometry relative="1" as="geometry" />
        </mxCell>
        <mxCell id="DRDyODUOUIoeHpMh8hU9-4" value="มี ?" style="rhombus;whiteSpace=wrap;html=1;" vertex="1" parent="1">
          <mxGeometry x="85" y="160" width="60" height="60" as="geometry" />
        </mxCell>
        <mxCell id="DRDyODUOUIoeHpMh8hU9-5" value="" style="edgeStyle=orthogonalEdgeStyle;rounded=0;orthogonalLoop=1;jettySize=auto;html=1;" edge="1" parent="1" source="DRDyODUOUIoeHpMh8hU9-2" target="DRDyODUOUIoeHpMh8hU9-4">
          <mxGeometry relative="1" as="geometry" />
        </mxCell>
        <mxCell id="DRDyODUOUIoeHpMh8hU9-6" style="edgeStyle=orthogonalEdgeStyle;rounded=0;orthogonalLoop=1;jettySize=auto;html=1;entryX=-0.022;entryY=0.676;entryDx=0;entryDy=0;entryPerimeter=0;" edge="1" parent="1" source="DRDyODUOUIoeHpMh8hU9-4" target="DRDyODUOUIoeHpMh8hU9-19">
          <mxGeometry relative="1" as="geometry">
            <Array as="points">
              <mxPoint x="115" y="624" />
            </Array>
            <mxPoint x="270" y="730" as="targetPoint" />
          </mxGeometry>
        </mxCell>
        <mxCell id="DRDyODUOUIoeHpMh8hU9-7" value="ไม่" style="edgeLabel;html=1;align=center;verticalAlign=middle;resizable=0;points=[];" vertex="1" connectable="0" parent="DRDyODUOUIoeHpMh8hU9-6">
          <mxGeometry x="-0.8925" y="1" relative="1" as="geometry">
            <mxPoint as="offset" />
          </mxGeometry>
        </mxCell>
        <mxCell id="DRDyODUOUIoeHpMh8hU9-8" value="ตรวจสอบ Account &lt;br&gt;สถานะการใช้งาน" style="rounded=1;whiteSpace=wrap;html=1;" vertex="1" parent="1">
          <mxGeometry x="261.35" y="169" width="170" height="40" as="geometry" />
        </mxCell>
        <mxCell id="DRDyODUOUIoeHpMh8hU9-9" value="" style="edgeStyle=orthogonalEdgeStyle;rounded=0;orthogonalLoop=1;jettySize=auto;html=1;" edge="1" parent="1" source="DRDyODUOUIoeHpMh8hU9-4" target="DRDyODUOUIoeHpMh8hU9-8">
          <mxGeometry relative="1" as="geometry">
            <Array as="points">
              <mxPoint x="225" y="190" />
              <mxPoint x="225" y="190" />
            </Array>
          </mxGeometry>
        </mxCell>
        <mxCell id="DRDyODUOUIoeHpMh8hU9-10" value="ใช่" style="edgeLabel;html=1;align=center;verticalAlign=middle;resizable=0;points=[];" vertex="1" connectable="0" parent="DRDyODUOUIoeHpMh8hU9-9">
          <mxGeometry x="-0.7797" y="-1" relative="1" as="geometry">
            <mxPoint as="offset" />
          </mxGeometry>
        </mxCell>
        <mxCell id="DRDyODUOUIoeHpMh8hU9-11" value="มีใน&lt;br&gt;ระบบ &lt;br&gt;?" style="rhombus;whiteSpace=wrap;html=1;" vertex="1" parent="1">
          <mxGeometry x="308.85" y="248" width="75" height="70" as="geometry" />
        </mxCell>
        <mxCell id="DRDyODUOUIoeHpMh8hU9-12" value="" style="edgeStyle=orthogonalEdgeStyle;rounded=0;orthogonalLoop=1;jettySize=auto;html=1;" edge="1" parent="1" source="DRDyODUOUIoeHpMh8hU9-8" target="DRDyODUOUIoeHpMh8hU9-11">
          <mxGeometry relative="1" as="geometry" />
        </mxCell>
        <mxCell id="DRDyODUOUIoeHpMh8hU9-13" value="status&lt;br style=&quot;border-color: var(--border-color);&quot;&gt;= 1 ?" style="rhombus;whiteSpace=wrap;html=1;" vertex="1" parent="1">
          <mxGeometry x="316.35" y="368" width="60" height="60" as="geometry" />
        </mxCell>
        <mxCell id="DRDyODUOUIoeHpMh8hU9-14" value="" style="edgeStyle=orthogonalEdgeStyle;rounded=0;orthogonalLoop=1;jettySize=auto;html=1;" edge="1" parent="1" source="DRDyODUOUIoeHpMh8hU9-11" target="DRDyODUOUIoeHpMh8hU9-13">
          <mxGeometry relative="1" as="geometry" />
        </mxCell>
        <mxCell id="DRDyODUOUIoeHpMh8hU9-15" value="ใช่" style="edgeLabel;html=1;align=center;verticalAlign=middle;resizable=0;points=[];" vertex="1" connectable="0" parent="DRDyODUOUIoeHpMh8hU9-14">
          <mxGeometry x="-0.3254" y="2" relative="1" as="geometry">
            <mxPoint x="-2" as="offset" />
          </mxGeometry>
        </mxCell>
        <mxCell id="DRDyODUOUIoeHpMh8hU9-16" value="Locked&lt;br style=&quot;border-color: var(--border-color);&quot;&gt;= 1 ?&amp;nbsp;" style="rhombus;whiteSpace=wrap;html=1;" vertex="1" parent="1">
          <mxGeometry x="316.35" y="498" width="60" height="60" as="geometry" />
        </mxCell>
        <mxCell id="DRDyODUOUIoeHpMh8hU9-17" value="" style="edgeStyle=orthogonalEdgeStyle;rounded=0;orthogonalLoop=1;jettySize=auto;html=1;" edge="1" parent="1" source="DRDyODUOUIoeHpMh8hU9-13" target="DRDyODUOUIoeHpMh8hU9-16">
          <mxGeometry relative="1" as="geometry" />
        </mxCell>
        <mxCell id="DRDyODUOUIoeHpMh8hU9-18" value="ไม่" style="edgeLabel;html=1;align=center;verticalAlign=middle;resizable=0;points=[];" vertex="1" connectable="0" parent="DRDyODUOUIoeHpMh8hU9-17">
          <mxGeometry x="-0.3745" relative="1" as="geometry">
            <mxPoint as="offset" />
          </mxGeometry>
        </mxCell>
        <mxCell id="DRDyODUOUIoeHpMh8hU9-19" value="1" style="ellipse;whiteSpace=wrap;html=1;aspect=fixed;" vertex="1" parent="1">
          <mxGeometry x="218.75" y="590" width="50" height="50" as="geometry" />
        </mxCell>
        <mxCell id="DRDyODUOUIoeHpMh8hU9-20" style="edgeStyle=orthogonalEdgeStyle;rounded=0;orthogonalLoop=1;jettySize=auto;html=1;" edge="1" parent="1" source="DRDyODUOUIoeHpMh8hU9-21" target="DRDyODUOUIoeHpMh8hU9-19">
          <mxGeometry relative="1" as="geometry">
            <Array as="points">
              <mxPoint x="145" y="283" />
              <mxPoint x="145" y="610" />
            </Array>
          </mxGeometry>
        </mxCell>
        <mxCell id="DRDyODUOUIoeHpMh8hU9-21" value="rerturn Error Code&amp;nbsp;001&lt;span style=&quot;font-size: medium; text-align: start;&quot;&gt;&lt;/span&gt;" style="rounded=1;whiteSpace=wrap;html=1;" vertex="1" parent="1">
          <mxGeometry x="155" y="263" width="77.5" height="40" as="geometry" />
        </mxCell>
        <mxCell id="DRDyODUOUIoeHpMh8hU9-22" style="edgeStyle=orthogonalEdgeStyle;rounded=0;orthogonalLoop=1;jettySize=auto;html=1;" edge="1" parent="1" source="DRDyODUOUIoeHpMh8hU9-11" target="DRDyODUOUIoeHpMh8hU9-21">
          <mxGeometry relative="1" as="geometry">
            <mxPoint x="245.10000000000002" y="388" as="targetPoint" />
          </mxGeometry>
        </mxCell>
        <mxCell id="DRDyODUOUIoeHpMh8hU9-23" value="ไม่" style="edgeLabel;html=1;align=center;verticalAlign=middle;resizable=0;points=[];" vertex="1" connectable="0" parent="DRDyODUOUIoeHpMh8hU9-22">
          <mxGeometry x="-0.6573" y="2" relative="1" as="geometry">
            <mxPoint as="offset" />
          </mxGeometry>
        </mxCell>
        <mxCell id="DRDyODUOUIoeHpMh8hU9-24" style="edgeStyle=orthogonalEdgeStyle;rounded=0;orthogonalLoop=1;jettySize=auto;html=1;entryX=0.5;entryY=0;entryDx=0;entryDy=0;" edge="1" parent="1" source="DRDyODUOUIoeHpMh8hU9-25" target="DRDyODUOUIoeHpMh8hU9-19">
          <mxGeometry relative="1" as="geometry" />
        </mxCell>
        <mxCell id="DRDyODUOUIoeHpMh8hU9-25" value="rerturn Error Code&amp;nbsp;011&lt;span style=&quot;font-size: medium; text-align: start;&quot;&gt;&lt;/span&gt;" style="rounded=1;whiteSpace=wrap;html=1;" vertex="1" parent="1">
          <mxGeometry x="205" y="508" width="77.5" height="40" as="geometry" />
        </mxCell>
        <mxCell id="DRDyODUOUIoeHpMh8hU9-26" value="" style="edgeStyle=orthogonalEdgeStyle;rounded=0;orthogonalLoop=1;jettySize=auto;html=1;" edge="1" parent="1" source="DRDyODUOUIoeHpMh8hU9-16" target="DRDyODUOUIoeHpMh8hU9-25">
          <mxGeometry relative="1" as="geometry" />
        </mxCell>
        <mxCell id="DRDyODUOUIoeHpMh8hU9-27" value="ใช่" style="edgeLabel;html=1;align=center;verticalAlign=middle;resizable=0;points=[];" vertex="1" connectable="0" parent="DRDyODUOUIoeHpMh8hU9-26">
          <mxGeometry x="-0.4608" y="1" relative="1" as="geometry">
            <mxPoint as="offset" />
          </mxGeometry>
        </mxCell>
        <mxCell id="DRDyODUOUIoeHpMh8hU9-28" style="edgeStyle=orthogonalEdgeStyle;rounded=0;orthogonalLoop=1;jettySize=auto;html=1;" edge="1" parent="1" source="DRDyODUOUIoeHpMh8hU9-29" target="DRDyODUOUIoeHpMh8hU9-19">
          <mxGeometry relative="1" as="geometry">
            <mxPoint x="245" y="590" as="targetPoint" />
            <Array as="points">
              <mxPoint x="185" y="398" />
              <mxPoint x="185" y="600" />
            </Array>
          </mxGeometry>
        </mxCell>
        <mxCell id="DRDyODUOUIoeHpMh8hU9-29" value="rerturn Error Code&amp;nbsp;004&lt;span style=&quot;font-size: medium; text-align: start;&quot;&gt;&lt;/span&gt;" style="rounded=1;whiteSpace=wrap;html=1;" vertex="1" parent="1">
          <mxGeometry x="205" y="378" width="77.5" height="40" as="geometry" />
        </mxCell>
        <mxCell id="DRDyODUOUIoeHpMh8hU9-30" value="" style="edgeStyle=orthogonalEdgeStyle;rounded=0;orthogonalLoop=1;jettySize=auto;html=1;" edge="1" parent="1" source="DRDyODUOUIoeHpMh8hU9-13" target="DRDyODUOUIoeHpMh8hU9-29">
          <mxGeometry relative="1" as="geometry" />
        </mxCell>
        <mxCell id="DRDyODUOUIoeHpMh8hU9-31" value="ใช่" style="edgeLabel;html=1;align=center;verticalAlign=middle;resizable=0;points=[];" vertex="1" connectable="0" parent="DRDyODUOUIoeHpMh8hU9-30">
          <mxGeometry x="-0.4608" y="2" relative="1" as="geometry">
            <mxPoint as="offset" />
          </mxGeometry>
        </mxCell>
        <mxCell id="DRDyODUOUIoeHpMh8hU9-32" value="" style="edgeStyle=orthogonalEdgeStyle;rounded=0;orthogonalLoop=1;jettySize=auto;html=1;entryX=0.1;entryY=0.5;entryDx=0;entryDy=0;entryPerimeter=0;" edge="1" parent="1" source="DRDyODUOUIoeHpMh8hU9-16" target="DRDyODUOUIoeHpMh8hU9-35">
          <mxGeometry relative="1" as="geometry">
            <mxPoint x="419" y="528" as="targetPoint" />
          </mxGeometry>
        </mxCell>
        <mxCell id="DRDyODUOUIoeHpMh8hU9-33" value="" style="edgeStyle=orthogonalEdgeStyle;rounded=0;orthogonalLoop=1;jettySize=auto;html=1;" edge="1" parent="1" source="DRDyODUOUIoeHpMh8hU9-35">
          <mxGeometry relative="1" as="geometry">
            <mxPoint x="535" y="528" as="targetPoint" />
          </mxGeometry>
        </mxCell>
        <mxCell id="DRDyODUOUIoeHpMh8hU9-34" value="ไม่" style="edgeLabel;html=1;align=center;verticalAlign=middle;resizable=0;points=[];" vertex="1" connectable="0" parent="DRDyODUOUIoeHpMh8hU9-33">
          <mxGeometry x="-0.3115" y="3" relative="1" as="geometry">
            <mxPoint as="offset" />
          </mxGeometry>
        </mxCell>
        <mxCell id="DRDyODUOUIoeHpMh8hU9-35" value="Super&lt;br&gt;Admin ?" style="rhombus;whiteSpace=wrap;html=1;" vertex="1" parent="1">
          <mxGeometry x="419" y="492" width="66" height="72" as="geometry" />
        </mxCell>
        <mxCell id="DRDyODUOUIoeHpMh8hU9-36" value="ตรวจสอบสิทธิ์การใช้งาน Company นี้ไหม&lt;span style=&quot;font-size: medium; text-align: start;&quot;&gt;&lt;/span&gt;" style="rounded=1;whiteSpace=wrap;html=1;" vertex="1" parent="1">
          <mxGeometry x="535" y="508" width="110" height="42" as="geometry" />
        </mxCell>
        <mxCell id="DRDyODUOUIoeHpMh8hU9-37" value="มี ?" style="rhombus;whiteSpace=wrap;html=1;" vertex="1" parent="1">
          <mxGeometry x="557" y="590" width="66" height="72" as="geometry" />
        </mxCell>
        <mxCell id="DRDyODUOUIoeHpMh8hU9-38" value="" style="edgeStyle=orthogonalEdgeStyle;rounded=0;orthogonalLoop=1;jettySize=auto;html=1;" edge="1" parent="1" source="DRDyODUOUIoeHpMh8hU9-36" target="DRDyODUOUIoeHpMh8hU9-37">
          <mxGeometry relative="1" as="geometry" />
        </mxCell>
        <mxCell id="DRDyODUOUIoeHpMh8hU9-39" value="Company &lt;br&gt;มีในระบบ&lt;br&gt;ไหม ?" style="rhombus;whiteSpace=wrap;html=1;" vertex="1" parent="1">
          <mxGeometry x="545" y="720" width="90" height="80" as="geometry" />
        </mxCell>
        <mxCell id="DRDyODUOUIoeHpMh8hU9-40" value="" style="edgeStyle=orthogonalEdgeStyle;rounded=0;orthogonalLoop=1;jettySize=auto;html=1;" edge="1" parent="1" source="DRDyODUOUIoeHpMh8hU9-37" target="DRDyODUOUIoeHpMh8hU9-39">
          <mxGeometry relative="1" as="geometry" />
        </mxCell>
        <mxCell id="DRDyODUOUIoeHpMh8hU9-41" value="ใช่" style="edgeLabel;html=1;align=center;verticalAlign=middle;resizable=0;points=[];" vertex="1" connectable="0" parent="DRDyODUOUIoeHpMh8hU9-40">
          <mxGeometry x="-0.2859" relative="1" as="geometry">
            <mxPoint as="offset" />
          </mxGeometry>
        </mxCell>
        <mxCell id="DRDyODUOUIoeHpMh8hU9-42" value="rerturn Error Code&amp;nbsp;002&lt;span style=&quot;font-size: medium; text-align: start;&quot;&gt;&lt;/span&gt;" style="rounded=1;whiteSpace=wrap;html=1;" vertex="1" parent="1">
          <mxGeometry x="685" y="606" width="77.5" height="40" as="geometry" />
        </mxCell>
        <mxCell id="DRDyODUOUIoeHpMh8hU9-43" style="edgeStyle=orthogonalEdgeStyle;rounded=0;orthogonalLoop=1;jettySize=auto;html=1;" edge="1" parent="1" source="DRDyODUOUIoeHpMh8hU9-37" target="DRDyODUOUIoeHpMh8hU9-42">
          <mxGeometry relative="1" as="geometry">
            <mxPoint x="685" y="625.9999999999998" as="targetPoint" />
          </mxGeometry>
        </mxCell>
        <mxCell id="DRDyODUOUIoeHpMh8hU9-44" value="ไม่" style="edgeLabel;html=1;align=center;verticalAlign=middle;resizable=0;points=[];" vertex="1" connectable="0" parent="DRDyODUOUIoeHpMh8hU9-43">
          <mxGeometry x="-0.0865" y="2" relative="1" as="geometry">
            <mxPoint as="offset" />
          </mxGeometry>
        </mxCell>
        <mxCell id="DRDyODUOUIoeHpMh8hU9-45" value="Company &lt;br&gt;Active ?" style="rhombus;whiteSpace=wrap;html=1;" vertex="1" parent="1">
          <mxGeometry x="545" y="840" width="90" height="80" as="geometry" />
        </mxCell>
        <mxCell id="DRDyODUOUIoeHpMh8hU9-46" value="ใช่" style="edgeStyle=orthogonalEdgeStyle;rounded=0;orthogonalLoop=1;jettySize=auto;html=1;" edge="1" parent="1" source="DRDyODUOUIoeHpMh8hU9-39" target="DRDyODUOUIoeHpMh8hU9-45">
          <mxGeometry relative="1" as="geometry" />
        </mxCell>
        <mxCell id="DRDyODUOUIoeHpMh8hU9-47" value="rerturn Error Code&amp;nbsp;007&lt;span style=&quot;font-size: medium; text-align: start;&quot;&gt;&lt;/span&gt;" style="rounded=1;whiteSpace=wrap;html=1;" vertex="1" parent="1">
          <mxGeometry x="685" y="740" width="77.5" height="40" as="geometry" />
        </mxCell>
        <mxCell id="DRDyODUOUIoeHpMh8hU9-48" value="" style="edgeStyle=orthogonalEdgeStyle;rounded=0;orthogonalLoop=1;jettySize=auto;html=1;" edge="1" parent="1" source="DRDyODUOUIoeHpMh8hU9-39" target="DRDyODUOUIoeHpMh8hU9-47">
          <mxGeometry relative="1" as="geometry" />
        </mxCell>
        <mxCell id="DRDyODUOUIoeHpMh8hU9-49" value="ไม่" style="edgeLabel;html=1;align=center;verticalAlign=middle;resizable=0;points=[];" vertex="1" connectable="0" parent="DRDyODUOUIoeHpMh8hU9-48">
          <mxGeometry x="-0.1127" relative="1" as="geometry">
            <mxPoint as="offset" />
          </mxGeometry>
        </mxCell>
        <mxCell id="DRDyODUOUIoeHpMh8hU9-50" value="rerturn Error Code&amp;nbsp;051&lt;span style=&quot;font-size: medium; text-align: start;&quot;&gt;&lt;/span&gt;" style="rounded=1;whiteSpace=wrap;html=1;" vertex="1" parent="1">
          <mxGeometry x="685" y="860" width="77.5" height="40" as="geometry" />
        </mxCell>
        <mxCell id="DRDyODUOUIoeHpMh8hU9-51" value="" style="edgeStyle=orthogonalEdgeStyle;rounded=0;orthogonalLoop=1;jettySize=auto;html=1;" edge="1" parent="1" source="DRDyODUOUIoeHpMh8hU9-45" target="DRDyODUOUIoeHpMh8hU9-50">
          <mxGeometry relative="1" as="geometry" />
        </mxCell>
        <mxCell id="DRDyODUOUIoeHpMh8hU9-52" value="ไม่" style="edgeLabel;html=1;align=center;verticalAlign=middle;resizable=0;points=[];" vertex="1" connectable="0" parent="DRDyODUOUIoeHpMh8hU9-51">
          <mxGeometry x="-0.2152" y="2" relative="1" as="geometry">
            <mxPoint as="offset" />
          </mxGeometry>
        </mxCell>
        <mxCell id="DRDyODUOUIoeHpMh8hU9-53" value="" style="edgeStyle=orthogonalEdgeStyle;rounded=0;orthogonalLoop=1;jettySize=auto;html=1;" edge="1" parent="1" source="DRDyODUOUIoeHpMh8hU9-54" target="DRDyODUOUIoeHpMh8hU9-71">
          <mxGeometry relative="1" as="geometry" />
        </mxCell>
        <mxCell id="DRDyODUOUIoeHpMh8hU9-54" value="ดึงข้อมูลของการประชุมผู้ถือหุ้น" style="rounded=1;whiteSpace=wrap;html=1;" vertex="1" parent="1">
          <mxGeometry x="392" y="860" width="120" height="40" as="geometry" />
        </mxCell>
        <mxCell id="DRDyODUOUIoeHpMh8hU9-55" style="edgeStyle=orthogonalEdgeStyle;rounded=0;orthogonalLoop=1;jettySize=auto;html=1;entryX=0.5;entryY=0;entryDx=0;entryDy=0;" edge="1" parent="1" source="DRDyODUOUIoeHpMh8hU9-35" target="DRDyODUOUIoeHpMh8hU9-54">
          <mxGeometry relative="1" as="geometry">
            <mxPoint x="452" y="920" as="targetPoint" />
          </mxGeometry>
        </mxCell>
        <mxCell id="DRDyODUOUIoeHpMh8hU9-56" value="ใช่" style="edgeLabel;html=1;align=center;verticalAlign=middle;resizable=0;points=[];" vertex="1" connectable="0" parent="DRDyODUOUIoeHpMh8hU9-55">
          <mxGeometry x="-0.3215" y="2" relative="1" as="geometry">
            <mxPoint as="offset" />
          </mxGeometry>
        </mxCell>
        <mxCell id="DRDyODUOUIoeHpMh8hU9-57" style="edgeStyle=orthogonalEdgeStyle;rounded=0;orthogonalLoop=1;jettySize=auto;html=1;entryX=1;entryY=0.5;entryDx=0;entryDy=0;" edge="1" parent="1" source="DRDyODUOUIoeHpMh8hU9-45" target="DRDyODUOUIoeHpMh8hU9-54">
          <mxGeometry relative="1" as="geometry">
            <Array as="points">
              <mxPoint x="512" y="880" />
            </Array>
          </mxGeometry>
        </mxCell>
        <mxCell id="DRDyODUOUIoeHpMh8hU9-58" value="2" style="ellipse;whiteSpace=wrap;html=1;aspect=fixed;" vertex="1" parent="1">
          <mxGeometry x="698.75" y="970" width="50" height="50" as="geometry" />
        </mxCell>
        <mxCell id="DRDyODUOUIoeHpMh8hU9-59" style="edgeStyle=orthogonalEdgeStyle;rounded=0;orthogonalLoop=1;jettySize=auto;html=1;entryX=1;entryY=0.5;entryDx=0;entryDy=0;" edge="1" parent="1" source="DRDyODUOUIoeHpMh8hU9-42" target="DRDyODUOUIoeHpMh8hU9-58">
          <mxGeometry relative="1" as="geometry">
            <mxPoint x="785" y="780" as="targetPoint" />
            <Array as="points">
              <mxPoint x="783" y="626" />
              <mxPoint x="783" y="995" />
            </Array>
          </mxGeometry>
        </mxCell>
        <mxCell id="DRDyODUOUIoeHpMh8hU9-60" style="edgeStyle=orthogonalEdgeStyle;rounded=0;orthogonalLoop=1;jettySize=auto;html=1;entryX=1;entryY=0;entryDx=0;entryDy=0;" edge="1" parent="1" source="DRDyODUOUIoeHpMh8hU9-47" target="DRDyODUOUIoeHpMh8hU9-58">
          <mxGeometry relative="1" as="geometry">
            <Array as="points">
              <mxPoint x="775" y="760" />
              <mxPoint x="775" y="977" />
            </Array>
          </mxGeometry>
        </mxCell>
        <mxCell id="DRDyODUOUIoeHpMh8hU9-61" style="edgeStyle=orthogonalEdgeStyle;rounded=0;orthogonalLoop=1;jettySize=auto;html=1;" edge="1" parent="1" source="DRDyODUOUIoeHpMh8hU9-50" target="DRDyODUOUIoeHpMh8hU9-58">
          <mxGeometry relative="1" as="geometry" />
        </mxCell>
        <mxCell id="DRDyODUOUIoeHpMh8hU9-62" value="สิ้นสุด" style="ellipse;whiteSpace=wrap;html=1;" vertex="1" parent="1">
          <mxGeometry x="367" y="1070" width="103" height="60" as="geometry" />
        </mxCell>
        <mxCell id="DRDyODUOUIoeHpMh8hU9-63" style="edgeStyle=orthogonalEdgeStyle;rounded=0;orthogonalLoop=1;jettySize=auto;html=1;entryX=0;entryY=0.5;entryDx=0;entryDy=0;" edge="1" parent="1" source="DRDyODUOUIoeHpMh8hU9-19" target="DRDyODUOUIoeHpMh8hU9-62">
          <mxGeometry relative="1" as="geometry">
            <Array as="points">
              <mxPoint x="244" y="1100" />
            </Array>
          </mxGeometry>
        </mxCell>
        <mxCell id="DRDyODUOUIoeHpMh8hU9-64" style="edgeStyle=orthogonalEdgeStyle;rounded=0;orthogonalLoop=1;jettySize=auto;html=1;entryX=1;entryY=1;entryDx=0;entryDy=0;" edge="1" parent="1" source="DRDyODUOUIoeHpMh8hU9-58" target="DRDyODUOUIoeHpMh8hU9-62">
          <mxGeometry relative="1" as="geometry">
            <Array as="points">
              <mxPoint x="724" y="1120" />
              <mxPoint x="455" y="1120" />
            </Array>
          </mxGeometry>
        </mxCell>
        <mxCell id="DRDyODUOUIoeHpMh8hU9-65" style="edgeStyle=orthogonalEdgeStyle;rounded=0;orthogonalLoop=1;jettySize=auto;html=1;entryX=0;entryY=0;entryDx=0;entryDy=0;" edge="1" parent="1" source="DRDyODUOUIoeHpMh8hU9-66" target="DRDyODUOUIoeHpMh8hU9-62">
          <mxGeometry relative="1" as="geometry">
            <Array as="points">
              <mxPoint x="340" y="1080" />
              <mxPoint x="380" y="1080" />
              <mxPoint x="380" y="1079" />
            </Array>
          </mxGeometry>
        </mxCell>
        <mxCell id="DRDyODUOUIoeHpMh8hU9-66" value="ส่งกลับข้อมูลของการประชุมผู้ถือหุ้น" style="rounded=1;whiteSpace=wrap;html=1;" vertex="1" parent="1">
          <mxGeometry x="280" y="930" width="120" height="40" as="geometry" />
        </mxCell>
        <mxCell id="DRDyODUOUIoeHpMh8hU9-67" value="" style="edgeStyle=orthogonalEdgeStyle;rounded=0;orthogonalLoop=1;jettySize=auto;html=1;" edge="1" parent="1" source="DRDyODUOUIoeHpMh8hU9-71" target="DRDyODUOUIoeHpMh8hU9-66">
          <mxGeometry relative="1" as="geometry" />
        </mxCell>
        <mxCell id="DRDyODUOUIoeHpMh8hU9-68" value="ใช่" style="edgeLabel;html=1;align=center;verticalAlign=middle;resizable=0;points=[];" vertex="1" connectable="0" parent="DRDyODUOUIoeHpMh8hU9-67">
          <mxGeometry x="-0.3989" y="-1" relative="1" as="geometry">
            <mxPoint y="2" as="offset" />
          </mxGeometry>
        </mxCell>
        <mxCell id="DRDyODUOUIoeHpMh8hU9-69" style="edgeStyle=orthogonalEdgeStyle;rounded=0;orthogonalLoop=1;jettySize=auto;html=1;" edge="1" parent="1" source="DRDyODUOUIoeHpMh8hU9-71" target="DRDyODUOUIoeHpMh8hU9-73">
          <mxGeometry relative="1" as="geometry" />
        </mxCell>
        <mxCell id="DRDyODUOUIoeHpMh8hU9-70" value="ไม่" style="edgeLabel;html=1;align=center;verticalAlign=middle;resizable=0;points=[];" vertex="1" connectable="0" parent="DRDyODUOUIoeHpMh8hU9-69">
          <mxGeometry x="0.2287" y="-1" relative="1" as="geometry">
            <mxPoint as="offset" />
          </mxGeometry>
        </mxCell>
        <mxCell id="DRDyODUOUIoeHpMh8hU9-71" value="มี?" style="rhombus;whiteSpace=wrap;html=1;" vertex="1" parent="1">
          <mxGeometry x="427.75" y="930" width="48.5" height="40" as="geometry" />
        </mxCell>
        <mxCell id="DRDyODUOUIoeHpMh8hU9-72" style="edgeStyle=orthogonalEdgeStyle;rounded=0;orthogonalLoop=1;jettySize=auto;html=1;" edge="1" parent="1" source="DRDyODUOUIoeHpMh8hU9-73" target="DRDyODUOUIoeHpMh8hU9-62">
          <mxGeometry relative="1" as="geometry" />
        </mxCell>
        <mxCell id="DRDyODUOUIoeHpMh8hU9-73" value="return Error code 095" style="rounded=1;whiteSpace=wrap;html=1;" vertex="1" parent="1">
          <mxGeometry x="477" y="1000" width="80" height="50" as="geometry" />
        </mxCell>
      </root>
    </mxGraphModel>
  </diagram>
  <diagram id="Bfn4clX6KHIXBfeM3Uff" name="Page-3">
    <mxGraphModel dx="1434" dy="764" grid="1" gridSize="10" guides="1" tooltips="1" connect="1" arrows="1" fold="1" page="1" pageScale="1" pageWidth="850" pageHeight="1100" math="0" shadow="0">
      <root>
        <mxCell id="0" />
        <mxCell id="1" parent="0" />
        <mxCell id="ejnH0SQuWGHS84jdJQjX-1" value="เริ่ม" style="ellipse;whiteSpace=wrap;html=1;" vertex="1" parent="1">
          <mxGeometry x="75" y="20" width="80" height="40" as="geometry" />
        </mxCell>
        <mxCell id="ejnH0SQuWGHS84jdJQjX-2" value="ตรวจสอบสิทธิ์การใช้งาน" style="rounded=1;whiteSpace=wrap;html=1;" vertex="1" parent="1">
          <mxGeometry x="45" y="100" width="140" height="30" as="geometry" />
        </mxCell>
        <mxCell id="ejnH0SQuWGHS84jdJQjX-3" value="" style="edgeStyle=orthogonalEdgeStyle;rounded=0;orthogonalLoop=1;jettySize=auto;html=1;" edge="1" parent="1" source="ejnH0SQuWGHS84jdJQjX-1" target="ejnH0SQuWGHS84jdJQjX-2">
          <mxGeometry relative="1" as="geometry" />
        </mxCell>
        <mxCell id="ejnH0SQuWGHS84jdJQjX-4" value="มี ?" style="rhombus;whiteSpace=wrap;html=1;" vertex="1" parent="1">
          <mxGeometry x="85" y="160" width="60" height="60" as="geometry" />
        </mxCell>
        <mxCell id="ejnH0SQuWGHS84jdJQjX-5" value="" style="edgeStyle=orthogonalEdgeStyle;rounded=0;orthogonalLoop=1;jettySize=auto;html=1;" edge="1" parent="1" source="ejnH0SQuWGHS84jdJQjX-2" target="ejnH0SQuWGHS84jdJQjX-4">
          <mxGeometry relative="1" as="geometry" />
        </mxCell>
        <mxCell id="ejnH0SQuWGHS84jdJQjX-6" style="edgeStyle=orthogonalEdgeStyle;rounded=0;orthogonalLoop=1;jettySize=auto;html=1;entryX=-0.022;entryY=0.676;entryDx=0;entryDy=0;entryPerimeter=0;" edge="1" parent="1" source="ejnH0SQuWGHS84jdJQjX-4" target="ejnH0SQuWGHS84jdJQjX-19">
          <mxGeometry relative="1" as="geometry">
            <Array as="points">
              <mxPoint x="115" y="696" />
            </Array>
            <mxPoint x="270" y="730" as="targetPoint" />
          </mxGeometry>
        </mxCell>
        <mxCell id="ejnH0SQuWGHS84jdJQjX-7" value="ไม่" style="edgeLabel;html=1;align=center;verticalAlign=middle;resizable=0;points=[];" vertex="1" connectable="0" parent="ejnH0SQuWGHS84jdJQjX-6">
          <mxGeometry x="-0.8925" y="1" relative="1" as="geometry">
            <mxPoint as="offset" />
          </mxGeometry>
        </mxCell>
        <mxCell id="ejnH0SQuWGHS84jdJQjX-8" value="ตรวจสอบ Account &lt;br&gt;สถานะการใช้งาน" style="rounded=1;whiteSpace=wrap;html=1;" vertex="1" parent="1">
          <mxGeometry x="261.35" y="169" width="170" height="40" as="geometry" />
        </mxCell>
        <mxCell id="ejnH0SQuWGHS84jdJQjX-9" value="" style="edgeStyle=orthogonalEdgeStyle;rounded=0;orthogonalLoop=1;jettySize=auto;html=1;" edge="1" parent="1" source="ejnH0SQuWGHS84jdJQjX-4" target="ejnH0SQuWGHS84jdJQjX-8">
          <mxGeometry relative="1" as="geometry">
            <Array as="points">
              <mxPoint x="225" y="190" />
              <mxPoint x="225" y="190" />
            </Array>
          </mxGeometry>
        </mxCell>
        <mxCell id="ejnH0SQuWGHS84jdJQjX-10" value="ใช่" style="edgeLabel;html=1;align=center;verticalAlign=middle;resizable=0;points=[];" vertex="1" connectable="0" parent="ejnH0SQuWGHS84jdJQjX-9">
          <mxGeometry x="-0.7797" y="-1" relative="1" as="geometry">
            <mxPoint as="offset" />
          </mxGeometry>
        </mxCell>
        <mxCell id="ejnH0SQuWGHS84jdJQjX-11" value="มีใน&lt;br&gt;ระบบ &lt;br&gt;?" style="rhombus;whiteSpace=wrap;html=1;" vertex="1" parent="1">
          <mxGeometry x="339" y="248" width="75" height="70" as="geometry" />
        </mxCell>
        <mxCell id="ejnH0SQuWGHS84jdJQjX-12" value="" style="edgeStyle=orthogonalEdgeStyle;rounded=0;orthogonalLoop=1;jettySize=auto;html=1;" edge="1" parent="1" source="ejnH0SQuWGHS84jdJQjX-8" target="ejnH0SQuWGHS84jdJQjX-11">
          <mxGeometry relative="1" as="geometry" />
        </mxCell>
        <mxCell id="ejnH0SQuWGHS84jdJQjX-13" value="status&lt;br style=&quot;border-color: var(--border-color);&quot;&gt;= 1 ?" style="rhombus;whiteSpace=wrap;html=1;" vertex="1" parent="1">
          <mxGeometry x="367" y="368" width="60" height="60" as="geometry" />
        </mxCell>
        <mxCell id="ejnH0SQuWGHS84jdJQjX-14" value="" style="edgeStyle=orthogonalEdgeStyle;rounded=0;orthogonalLoop=1;jettySize=auto;html=1;" edge="1" parent="1" source="ejnH0SQuWGHS84jdJQjX-11" target="ejnH0SQuWGHS84jdJQjX-13">
          <mxGeometry relative="1" as="geometry" />
        </mxCell>
        <mxCell id="ejnH0SQuWGHS84jdJQjX-15" value="ใช่" style="edgeLabel;html=1;align=center;verticalAlign=middle;resizable=0;points=[];" vertex="1" connectable="0" parent="ejnH0SQuWGHS84jdJQjX-14">
          <mxGeometry x="-0.3254" y="2" relative="1" as="geometry">
            <mxPoint x="-2" as="offset" />
          </mxGeometry>
        </mxCell>
        <mxCell id="ejnH0SQuWGHS84jdJQjX-16" value="Locked&lt;br style=&quot;border-color: var(--border-color);&quot;&gt;= 1 ?&amp;nbsp;" style="rhombus;whiteSpace=wrap;html=1;" vertex="1" parent="1">
          <mxGeometry x="367.75" y="498" width="60" height="60" as="geometry" />
        </mxCell>
        <mxCell id="ejnH0SQuWGHS84jdJQjX-17" value="" style="edgeStyle=orthogonalEdgeStyle;rounded=0;orthogonalLoop=1;jettySize=auto;html=1;" edge="1" parent="1" source="ejnH0SQuWGHS84jdJQjX-13" target="ejnH0SQuWGHS84jdJQjX-16">
          <mxGeometry relative="1" as="geometry" />
        </mxCell>
        <mxCell id="ejnH0SQuWGHS84jdJQjX-18" value="ไม่" style="edgeLabel;html=1;align=center;verticalAlign=middle;resizable=0;points=[];" vertex="1" connectable="0" parent="ejnH0SQuWGHS84jdJQjX-17">
          <mxGeometry x="-0.3745" relative="1" as="geometry">
            <mxPoint as="offset" />
          </mxGeometry>
        </mxCell>
        <mxCell id="ejnH0SQuWGHS84jdJQjX-19" value="1" style="ellipse;whiteSpace=wrap;html=1;aspect=fixed;" vertex="1" parent="1">
          <mxGeometry x="197.5" y="662" width="50" height="50" as="geometry" />
        </mxCell>
        <mxCell id="ejnH0SQuWGHS84jdJQjX-20" style="edgeStyle=orthogonalEdgeStyle;rounded=0;orthogonalLoop=1;jettySize=auto;html=1;exitX=0.492;exitY=0.949;exitDx=0;exitDy=0;exitPerimeter=0;" edge="1" parent="1" source="ejnH0SQuWGHS84jdJQjX-21" target="ejnH0SQuWGHS84jdJQjX-19">
          <mxGeometry relative="1" as="geometry">
            <Array as="points">
              <mxPoint x="166" y="376" />
              <mxPoint x="150" y="376" />
              <mxPoint x="150" y="680" />
            </Array>
          </mxGeometry>
        </mxCell>
        <mxCell id="ejnH0SQuWGHS84jdJQjX-21" value="rerturn Error Code&amp;nbsp;001&lt;span style=&quot;font-size: medium; text-align: start;&quot;&gt;&lt;/span&gt;" style="rounded=1;whiteSpace=wrap;html=1;" vertex="1" parent="1">
          <mxGeometry x="127.5" y="328" width="77.5" height="40" as="geometry" />
        </mxCell>
        <mxCell id="ejnH0SQuWGHS84jdJQjX-22" style="edgeStyle=orthogonalEdgeStyle;rounded=0;orthogonalLoop=1;jettySize=auto;html=1;entryX=1;entryY=1;entryDx=0;entryDy=0;" edge="1" parent="1" source="ejnH0SQuWGHS84jdJQjX-23" target="ejnH0SQuWGHS84jdJQjX-19">
          <mxGeometry relative="1" as="geometry">
            <Array as="points">
              <mxPoint x="302" y="705" />
              <mxPoint x="244" y="705" />
            </Array>
          </mxGeometry>
        </mxCell>
        <mxCell id="ejnH0SQuWGHS84jdJQjX-23" value="rerturn Error Code&amp;nbsp;011&lt;span style=&quot;font-size: medium; text-align: start;&quot;&gt;&lt;/span&gt;" style="rounded=1;whiteSpace=wrap;html=1;" vertex="1" parent="1">
          <mxGeometry x="263.5" y="646" width="77.5" height="40" as="geometry" />
        </mxCell>
        <mxCell id="ejnH0SQuWGHS84jdJQjX-24" value="" style="edgeStyle=orthogonalEdgeStyle;rounded=0;orthogonalLoop=1;jettySize=auto;html=1;entryX=0.467;entryY=0.027;entryDx=0;entryDy=0;entryPerimeter=0;" edge="1" parent="1" source="ejnH0SQuWGHS84jdJQjX-68" target="ejnH0SQuWGHS84jdJQjX-70">
          <mxGeometry relative="1" as="geometry" />
        </mxCell>
        <mxCell id="ejnH0SQuWGHS84jdJQjX-25" style="edgeStyle=orthogonalEdgeStyle;rounded=0;orthogonalLoop=1;jettySize=auto;html=1;" edge="1" parent="1" source="ejnH0SQuWGHS84jdJQjX-26" target="ejnH0SQuWGHS84jdJQjX-19">
          <mxGeometry relative="1" as="geometry">
            <mxPoint x="190" y="630" as="targetPoint" />
            <Array as="points">
              <mxPoint x="209" y="660" />
              <mxPoint x="209" y="660" />
            </Array>
          </mxGeometry>
        </mxCell>
        <mxCell id="ejnH0SQuWGHS84jdJQjX-26" value="rerturn Error Code&amp;nbsp;004&lt;span style=&quot;font-size: medium; text-align: start;&quot;&gt;&lt;/span&gt;" style="rounded=1;whiteSpace=wrap;html=1;" vertex="1" parent="1">
          <mxGeometry x="170" y="468" width="77.5" height="40" as="geometry" />
        </mxCell>
        <mxCell id="ejnH0SQuWGHS84jdJQjX-27" value="" style="edgeStyle=orthogonalEdgeStyle;rounded=0;orthogonalLoop=1;jettySize=auto;html=1;" edge="1" parent="1" source="ejnH0SQuWGHS84jdJQjX-13" target="ejnH0SQuWGHS84jdJQjX-63">
          <mxGeometry relative="1" as="geometry">
            <mxPoint x="300" y="380" as="targetPoint" />
          </mxGeometry>
        </mxCell>
        <mxCell id="ejnH0SQuWGHS84jdJQjX-28" value="ใช่" style="edgeLabel;html=1;align=center;verticalAlign=middle;resizable=0;points=[];" vertex="1" connectable="0" parent="ejnH0SQuWGHS84jdJQjX-27">
          <mxGeometry x="-0.4608" y="2" relative="1" as="geometry">
            <mxPoint as="offset" />
          </mxGeometry>
        </mxCell>
        <mxCell id="ejnH0SQuWGHS84jdJQjX-29" value="" style="edgeStyle=orthogonalEdgeStyle;rounded=0;orthogonalLoop=1;jettySize=auto;html=1;entryX=0.1;entryY=0.5;entryDx=0;entryDy=0;entryPerimeter=0;" edge="1" parent="1" source="ejnH0SQuWGHS84jdJQjX-16" target="ejnH0SQuWGHS84jdJQjX-32">
          <mxGeometry relative="1" as="geometry">
            <mxPoint x="419" y="528" as="targetPoint" />
            <Array as="points">
              <mxPoint x="460" y="528" />
              <mxPoint x="460" y="354" />
            </Array>
          </mxGeometry>
        </mxCell>
        <mxCell id="ejnH0SQuWGHS84jdJQjX-30" value="" style="edgeStyle=orthogonalEdgeStyle;rounded=0;orthogonalLoop=1;jettySize=auto;html=1;" edge="1" parent="1" source="ejnH0SQuWGHS84jdJQjX-32" target="ejnH0SQuWGHS84jdJQjX-33">
          <mxGeometry relative="1" as="geometry">
            <mxPoint x="535" y="528" as="targetPoint" />
            <Array as="points">
              <mxPoint x="590" y="354" />
            </Array>
          </mxGeometry>
        </mxCell>
        <mxCell id="ejnH0SQuWGHS84jdJQjX-31" value="ไม่" style="edgeLabel;html=1;align=center;verticalAlign=middle;resizable=0;points=[];" vertex="1" connectable="0" parent="ejnH0SQuWGHS84jdJQjX-30">
          <mxGeometry x="-0.3115" y="3" relative="1" as="geometry">
            <mxPoint as="offset" />
          </mxGeometry>
        </mxCell>
        <mxCell id="ejnH0SQuWGHS84jdJQjX-32" value="Super&lt;br&gt;Admin ?" style="rhombus;whiteSpace=wrap;html=1;" vertex="1" parent="1">
          <mxGeometry x="476.25" y="318" width="66" height="72" as="geometry" />
        </mxCell>
        <mxCell id="ejnH0SQuWGHS84jdJQjX-33" value="ตรวจสอบสิทธิ์การใช้งาน Company นี้ไหม&lt;span style=&quot;font-size: medium; text-align: start;&quot;&gt;&lt;/span&gt;" style="rounded=1;whiteSpace=wrap;html=1;" vertex="1" parent="1">
          <mxGeometry x="535" y="508" width="110" height="42" as="geometry" />
        </mxCell>
        <mxCell id="ejnH0SQuWGHS84jdJQjX-34" value="มี ?" style="rhombus;whiteSpace=wrap;html=1;" vertex="1" parent="1">
          <mxGeometry x="557" y="590" width="66" height="72" as="geometry" />
        </mxCell>
        <mxCell id="ejnH0SQuWGHS84jdJQjX-35" value="" style="edgeStyle=orthogonalEdgeStyle;rounded=0;orthogonalLoop=1;jettySize=auto;html=1;" edge="1" parent="1" source="ejnH0SQuWGHS84jdJQjX-33" target="ejnH0SQuWGHS84jdJQjX-34">
          <mxGeometry relative="1" as="geometry" />
        </mxCell>
        <mxCell id="ejnH0SQuWGHS84jdJQjX-36" value="Company &lt;br&gt;มีในระบบ&lt;br&gt;ไหม ?" style="rhombus;whiteSpace=wrap;html=1;" vertex="1" parent="1">
          <mxGeometry x="545" y="720" width="90" height="80" as="geometry" />
        </mxCell>
        <mxCell id="ejnH0SQuWGHS84jdJQjX-37" value="" style="edgeStyle=orthogonalEdgeStyle;rounded=0;orthogonalLoop=1;jettySize=auto;html=1;" edge="1" parent="1" source="ejnH0SQuWGHS84jdJQjX-34" target="ejnH0SQuWGHS84jdJQjX-36">
          <mxGeometry relative="1" as="geometry" />
        </mxCell>
        <mxCell id="ejnH0SQuWGHS84jdJQjX-38" value="ใช่" style="edgeLabel;html=1;align=center;verticalAlign=middle;resizable=0;points=[];" vertex="1" connectable="0" parent="ejnH0SQuWGHS84jdJQjX-37">
          <mxGeometry x="-0.2859" relative="1" as="geometry">
            <mxPoint as="offset" />
          </mxGeometry>
        </mxCell>
        <mxCell id="ejnH0SQuWGHS84jdJQjX-39" style="edgeStyle=orthogonalEdgeStyle;rounded=0;orthogonalLoop=1;jettySize=auto;html=1;" edge="1" parent="1">
          <mxGeometry relative="1" as="geometry">
            <mxPoint x="737.5" y="626" as="sourcePoint" />
            <mxPoint x="760" y="626" as="targetPoint" />
          </mxGeometry>
        </mxCell>
        <mxCell id="ejnH0SQuWGHS84jdJQjX-40" style="edgeStyle=orthogonalEdgeStyle;rounded=0;orthogonalLoop=1;jettySize=auto;html=1;" edge="1" parent="1" source="ejnH0SQuWGHS84jdJQjX-34">
          <mxGeometry relative="1" as="geometry">
            <mxPoint x="660" y="626" as="targetPoint" />
          </mxGeometry>
        </mxCell>
        <mxCell id="ejnH0SQuWGHS84jdJQjX-41" value="ไม่" style="edgeLabel;html=1;align=center;verticalAlign=middle;resizable=0;points=[];" vertex="1" connectable="0" parent="ejnH0SQuWGHS84jdJQjX-40">
          <mxGeometry x="-0.0865" y="2" relative="1" as="geometry">
            <mxPoint as="offset" />
          </mxGeometry>
        </mxCell>
        <mxCell id="ejnH0SQuWGHS84jdJQjX-42" style="edgeStyle=orthogonalEdgeStyle;rounded=0;orthogonalLoop=1;jettySize=auto;html=1;" edge="1" parent="1" source="ejnH0SQuWGHS84jdJQjX-44" target="ejnH0SQuWGHS84jdJQjX-88">
          <mxGeometry relative="1" as="geometry" />
        </mxCell>
        <mxCell id="ejnH0SQuWGHS84jdJQjX-43" value="ใช่" style="edgeLabel;html=1;align=center;verticalAlign=middle;resizable=0;points=[];" vertex="1" connectable="0" parent="ejnH0SQuWGHS84jdJQjX-42">
          <mxGeometry x="-0.0994" relative="1" as="geometry">
            <mxPoint as="offset" />
          </mxGeometry>
        </mxCell>
        <mxCell id="ejnH0SQuWGHS84jdJQjX-44" value="Company &lt;br&gt;Active ?" style="rhombus;whiteSpace=wrap;html=1;" vertex="1" parent="1">
          <mxGeometry x="545" y="840" width="90" height="80" as="geometry" />
        </mxCell>
        <mxCell id="ejnH0SQuWGHS84jdJQjX-45" value="ใช่" style="edgeStyle=orthogonalEdgeStyle;rounded=0;orthogonalLoop=1;jettySize=auto;html=1;" edge="1" parent="1" source="ejnH0SQuWGHS84jdJQjX-36" target="ejnH0SQuWGHS84jdJQjX-44">
          <mxGeometry relative="1" as="geometry" />
        </mxCell>
        <mxCell id="ejnH0SQuWGHS84jdJQjX-46" value="" style="edgeStyle=orthogonalEdgeStyle;rounded=0;orthogonalLoop=1;jettySize=auto;html=1;" edge="1" parent="1" source="ejnH0SQuWGHS84jdJQjX-36">
          <mxGeometry relative="1" as="geometry">
            <mxPoint x="685" y="760" as="targetPoint" />
          </mxGeometry>
        </mxCell>
        <mxCell id="ejnH0SQuWGHS84jdJQjX-47" value="ไม่" style="edgeLabel;html=1;align=center;verticalAlign=middle;resizable=0;points=[];" vertex="1" connectable="0" parent="ejnH0SQuWGHS84jdJQjX-46">
          <mxGeometry x="-0.1127" relative="1" as="geometry">
            <mxPoint as="offset" />
          </mxGeometry>
        </mxCell>
        <mxCell id="ejnH0SQuWGHS84jdJQjX-48" value="" style="edgeStyle=orthogonalEdgeStyle;rounded=0;orthogonalLoop=1;jettySize=auto;html=1;" edge="1" parent="1" source="ejnH0SQuWGHS84jdJQjX-44" target="ejnH0SQuWGHS84jdJQjX-83">
          <mxGeometry relative="1" as="geometry">
            <mxPoint x="685" y="880" as="targetPoint" />
          </mxGeometry>
        </mxCell>
        <mxCell id="ejnH0SQuWGHS84jdJQjX-49" value="ไม่" style="edgeLabel;html=1;align=center;verticalAlign=middle;resizable=0;points=[];" vertex="1" connectable="0" parent="ejnH0SQuWGHS84jdJQjX-48">
          <mxGeometry x="-0.2152" y="2" relative="1" as="geometry">
            <mxPoint as="offset" />
          </mxGeometry>
        </mxCell>
        <mxCell id="ejnH0SQuWGHS84jdJQjX-50" style="edgeStyle=orthogonalEdgeStyle;rounded=0;orthogonalLoop=1;jettySize=auto;html=1;" edge="1" parent="1" source="ejnH0SQuWGHS84jdJQjX-32" target="ejnH0SQuWGHS84jdJQjX-88">
          <mxGeometry relative="1" as="geometry">
            <mxPoint x="452" y="860" as="targetPoint" />
          </mxGeometry>
        </mxCell>
        <mxCell id="ejnH0SQuWGHS84jdJQjX-51" value="ใช่" style="edgeLabel;html=1;align=center;verticalAlign=middle;resizable=0;points=[];" vertex="1" connectable="0" parent="ejnH0SQuWGHS84jdJQjX-50">
          <mxGeometry x="-0.3215" y="2" relative="1" as="geometry">
            <mxPoint as="offset" />
          </mxGeometry>
        </mxCell>
        <mxCell id="ejnH0SQuWGHS84jdJQjX-52" style="edgeStyle=orthogonalEdgeStyle;rounded=0;orthogonalLoop=1;jettySize=auto;html=1;entryX=1;entryY=0.5;entryDx=0;entryDy=0;" edge="1" parent="1" source="ejnH0SQuWGHS84jdJQjX-53" target="ejnH0SQuWGHS84jdJQjX-91">
          <mxGeometry relative="1" as="geometry" />
        </mxCell>
        <mxCell id="ejnH0SQuWGHS84jdJQjX-53" value="2" style="ellipse;whiteSpace=wrap;html=1;aspect=fixed;" vertex="1" parent="1">
          <mxGeometry x="698.75" y="970" width="50" height="50" as="geometry" />
        </mxCell>
        <mxCell id="ejnH0SQuWGHS84jdJQjX-54" style="edgeStyle=orthogonalEdgeStyle;rounded=0;orthogonalLoop=1;jettySize=auto;html=1;entryX=1;entryY=0.5;entryDx=0;entryDy=0;" edge="1" parent="1" source="ejnH0SQuWGHS84jdJQjX-73" target="ejnH0SQuWGHS84jdJQjX-53">
          <mxGeometry relative="1" as="geometry">
            <mxPoint x="785" y="780" as="targetPoint" />
            <Array as="points">
              <mxPoint x="910" y="692" />
              <mxPoint x="910" y="995" />
            </Array>
            <mxPoint x="800.0285714285715" y="646" as="sourcePoint" />
          </mxGeometry>
        </mxCell>
        <mxCell id="ejnH0SQuWGHS84jdJQjX-55" style="edgeStyle=orthogonalEdgeStyle;rounded=0;orthogonalLoop=1;jettySize=auto;html=1;entryX=0;entryY=0.5;entryDx=0;entryDy=0;" edge="1" parent="1" target="ejnH0SQuWGHS84jdJQjX-79">
          <mxGeometry relative="1" as="geometry">
            <Array as="points">
              <mxPoint x="780" y="760" />
              <mxPoint x="780" y="760" />
            </Array>
            <mxPoint x="762.5" y="760.037037037037" as="sourcePoint" />
          </mxGeometry>
        </mxCell>
        <mxCell id="ejnH0SQuWGHS84jdJQjX-56" value="" style="edgeStyle=orthogonalEdgeStyle;rounded=0;orthogonalLoop=1;jettySize=auto;html=1;entryX=0.5;entryY=0;entryDx=0;entryDy=0;" edge="1" parent="1" source="ejnH0SQuWGHS84jdJQjX-57" target="ejnH0SQuWGHS84jdJQjX-21">
          <mxGeometry relative="1" as="geometry" />
        </mxCell>
        <mxCell id="ejnH0SQuWGHS84jdJQjX-57" value="บันทึกข้อมูล&lt;span style=&quot;font-size: medium; text-align: start;&quot;&gt;&lt;/span&gt;" style="rounded=1;whiteSpace=wrap;html=1;" vertex="1" parent="1">
          <mxGeometry x="127.5" y="263" width="77.5" height="40" as="geometry" />
        </mxCell>
        <mxCell id="ejnH0SQuWGHS84jdJQjX-58" value="" style="edgeStyle=orthogonalEdgeStyle;rounded=0;orthogonalLoop=1;jettySize=auto;html=1;" edge="1" parent="1" source="ejnH0SQuWGHS84jdJQjX-11" target="ejnH0SQuWGHS84jdJQjX-61">
          <mxGeometry relative="1" as="geometry">
            <mxPoint x="159" y="338" as="targetPoint" />
            <mxPoint x="309" y="283" as="sourcePoint" />
          </mxGeometry>
        </mxCell>
        <mxCell id="ejnH0SQuWGHS84jdJQjX-59" value="ไม่" style="edgeLabel;html=1;align=center;verticalAlign=middle;resizable=0;points=[];" vertex="1" connectable="0" parent="ejnH0SQuWGHS84jdJQjX-58">
          <mxGeometry x="-0.6573" y="2" relative="1" as="geometry">
            <mxPoint as="offset" />
          </mxGeometry>
        </mxCell>
        <mxCell id="ejnH0SQuWGHS84jdJQjX-60" style="edgeStyle=orthogonalEdgeStyle;rounded=0;orthogonalLoop=1;jettySize=auto;html=1;" edge="1" parent="1" source="ejnH0SQuWGHS84jdJQjX-61" target="ejnH0SQuWGHS84jdJQjX-57">
          <mxGeometry relative="1" as="geometry" />
        </mxCell>
        <mxCell id="ejnH0SQuWGHS84jdJQjX-61" value="สร้างข้อมูล ActivityLog&lt;span style=&quot;font-size: medium; text-align: start;&quot;&gt;&lt;/span&gt;" style="rounded=1;whiteSpace=wrap;html=1;" vertex="1" parent="1">
          <mxGeometry x="230" y="263" width="77.5" height="40" as="geometry" />
        </mxCell>
        <mxCell id="ejnH0SQuWGHS84jdJQjX-62" style="edgeStyle=orthogonalEdgeStyle;rounded=0;orthogonalLoop=1;jettySize=auto;html=1;" edge="1" parent="1" source="ejnH0SQuWGHS84jdJQjX-63" target="ejnH0SQuWGHS84jdJQjX-65">
          <mxGeometry relative="1" as="geometry" />
        </mxCell>
        <mxCell id="ejnH0SQuWGHS84jdJQjX-63" value="สร้างข้อมูล ActivityLog&lt;span style=&quot;font-size: medium; text-align: start;&quot;&gt;&lt;/span&gt;" style="rounded=1;whiteSpace=wrap;html=1;" vertex="1" parent="1">
          <mxGeometry x="261.35" y="378" width="77.5" height="40" as="geometry" />
        </mxCell>
        <mxCell id="ejnH0SQuWGHS84jdJQjX-64" style="edgeStyle=orthogonalEdgeStyle;rounded=0;orthogonalLoop=1;jettySize=auto;html=1;entryX=0.5;entryY=0;entryDx=0;entryDy=0;" edge="1" parent="1" source="ejnH0SQuWGHS84jdJQjX-65" target="ejnH0SQuWGHS84jdJQjX-26">
          <mxGeometry relative="1" as="geometry">
            <Array as="points">
              <mxPoint x="194" y="438" />
            </Array>
          </mxGeometry>
        </mxCell>
        <mxCell id="ejnH0SQuWGHS84jdJQjX-65" value="บันทึกข้อมูล&lt;span style=&quot;font-size: medium; text-align: start;&quot;&gt;&lt;/span&gt;" style="rounded=1;whiteSpace=wrap;html=1;" vertex="1" parent="1">
          <mxGeometry x="170" y="378" width="77.5" height="40" as="geometry" />
        </mxCell>
        <mxCell id="ejnH0SQuWGHS84jdJQjX-66" value="" style="edgeStyle=orthogonalEdgeStyle;rounded=0;orthogonalLoop=1;jettySize=auto;html=1;" edge="1" parent="1" source="ejnH0SQuWGHS84jdJQjX-16" target="ejnH0SQuWGHS84jdJQjX-68">
          <mxGeometry relative="1" as="geometry">
            <mxPoint x="368" y="528" as="sourcePoint" />
            <mxPoint x="328" y="585" as="targetPoint" />
          </mxGeometry>
        </mxCell>
        <mxCell id="ejnH0SQuWGHS84jdJQjX-67" value="ใช่" style="edgeLabel;html=1;align=center;verticalAlign=middle;resizable=0;points=[];" vertex="1" connectable="0" parent="ejnH0SQuWGHS84jdJQjX-66">
          <mxGeometry x="-0.4608" y="1" relative="1" as="geometry">
            <mxPoint as="offset" />
          </mxGeometry>
        </mxCell>
        <mxCell id="ejnH0SQuWGHS84jdJQjX-68" value="สร้างข้อมูล ActivityLog&lt;span style=&quot;font-size: medium; text-align: start;&quot;&gt;&lt;/span&gt;" style="rounded=1;whiteSpace=wrap;html=1;" vertex="1" parent="1">
          <mxGeometry x="261.35" y="508" width="77.5" height="40" as="geometry" />
        </mxCell>
        <mxCell id="ejnH0SQuWGHS84jdJQjX-69" value="" style="edgeStyle=orthogonalEdgeStyle;rounded=0;orthogonalLoop=1;jettySize=auto;html=1;" edge="1" parent="1" source="ejnH0SQuWGHS84jdJQjX-70" target="ejnH0SQuWGHS84jdJQjX-23">
          <mxGeometry relative="1" as="geometry" />
        </mxCell>
        <mxCell id="ejnH0SQuWGHS84jdJQjX-70" value="บันทึกข้อมูล&lt;span style=&quot;font-size: medium; text-align: start;&quot;&gt;&lt;/span&gt;" style="rounded=1;whiteSpace=wrap;html=1;" vertex="1" parent="1">
          <mxGeometry x="263.5" y="580" width="77.5" height="40" as="geometry" />
        </mxCell>
        <mxCell id="ejnH0SQuWGHS84jdJQjX-71" style="edgeStyle=orthogonalEdgeStyle;rounded=0;orthogonalLoop=1;jettySize=auto;html=1;entryX=0.5;entryY=0;entryDx=0;entryDy=0;" edge="1" parent="1" source="ejnH0SQuWGHS84jdJQjX-72" target="ejnH0SQuWGHS84jdJQjX-73">
          <mxGeometry relative="1" as="geometry" />
        </mxCell>
        <mxCell id="ejnH0SQuWGHS84jdJQjX-72" value="บันทึกข้อมูล" style="rounded=1;whiteSpace=wrap;html=1;" vertex="1" parent="1">
          <mxGeometry x="760" y="606" width="77.5" height="40" as="geometry" />
        </mxCell>
        <mxCell id="ejnH0SQuWGHS84jdJQjX-73" value="rerturn Error Code&amp;nbsp;002&lt;span style=&quot;font-size: medium; text-align: start;&quot;&gt;&lt;/span&gt;" style="rounded=1;whiteSpace=wrap;html=1;" vertex="1" parent="1">
          <mxGeometry x="760" y="672" width="77.5" height="40" as="geometry" />
        </mxCell>
        <mxCell id="ejnH0SQuWGHS84jdJQjX-74" value="สร้างข้อมูล ActivityLog&lt;span style=&quot;font-size: medium; text-align: start;&quot;&gt;&lt;/span&gt;" style="rounded=1;whiteSpace=wrap;html=1;" vertex="1" parent="1">
          <mxGeometry x="660" y="606" width="77.5" height="40" as="geometry" />
        </mxCell>
        <mxCell id="ejnH0SQuWGHS84jdJQjX-75" style="edgeStyle=orthogonalEdgeStyle;rounded=0;orthogonalLoop=1;jettySize=auto;html=1;" edge="1" parent="1" source="ejnH0SQuWGHS84jdJQjX-76">
          <mxGeometry relative="1" as="geometry">
            <mxPoint x="910" y="820" as="targetPoint" />
          </mxGeometry>
        </mxCell>
        <mxCell id="ejnH0SQuWGHS84jdJQjX-76" value="rerturn Error Code&amp;nbsp;007&lt;span style=&quot;font-size: medium; text-align: start;&quot;&gt;&lt;/span&gt;" style="rounded=1;whiteSpace=wrap;html=1;" vertex="1" parent="1">
          <mxGeometry x="790" y="800" width="77.5" height="40" as="geometry" />
        </mxCell>
        <mxCell id="ejnH0SQuWGHS84jdJQjX-77" value="สร้างข้อมูล ActivityLog&lt;span style=&quot;font-size: medium; text-align: start;&quot;&gt;&lt;/span&gt;" style="rounded=1;whiteSpace=wrap;html=1;" vertex="1" parent="1">
          <mxGeometry x="685" y="740" width="77.5" height="40" as="geometry" />
        </mxCell>
        <mxCell id="ejnH0SQuWGHS84jdJQjX-78" style="edgeStyle=orthogonalEdgeStyle;rounded=0;orthogonalLoop=1;jettySize=auto;html=1;" edge="1" parent="1" source="ejnH0SQuWGHS84jdJQjX-79" target="ejnH0SQuWGHS84jdJQjX-76">
          <mxGeometry relative="1" as="geometry" />
        </mxCell>
        <mxCell id="ejnH0SQuWGHS84jdJQjX-79" value="บันทึกข้อมูล" style="rounded=1;whiteSpace=wrap;html=1;" vertex="1" parent="1">
          <mxGeometry x="790" y="740" width="77.5" height="40" as="geometry" />
        </mxCell>
        <mxCell id="ejnH0SQuWGHS84jdJQjX-80" style="edgeStyle=orthogonalEdgeStyle;rounded=0;orthogonalLoop=1;jettySize=auto;html=1;" edge="1" parent="1" source="ejnH0SQuWGHS84jdJQjX-81" target="ejnH0SQuWGHS84jdJQjX-53">
          <mxGeometry relative="1" as="geometry">
            <mxPoint x="829" y="990" as="targetPoint" />
          </mxGeometry>
        </mxCell>
        <mxCell id="ejnH0SQuWGHS84jdJQjX-81" value="rerturn Error Code&amp;nbsp;051&lt;span style=&quot;font-size: medium; text-align: start;&quot;&gt;&lt;/span&gt;" style="rounded=1;whiteSpace=wrap;html=1;" vertex="1" parent="1">
          <mxGeometry x="790" y="920" width="77.5" height="40" as="geometry" />
        </mxCell>
        <mxCell id="ejnH0SQuWGHS84jdJQjX-82" style="edgeStyle=orthogonalEdgeStyle;rounded=0;orthogonalLoop=1;jettySize=auto;html=1;entryX=-0.036;entryY=0.462;entryDx=0;entryDy=0;entryPerimeter=0;" edge="1" parent="1" source="ejnH0SQuWGHS84jdJQjX-83" target="ejnH0SQuWGHS84jdJQjX-85">
          <mxGeometry relative="1" as="geometry" />
        </mxCell>
        <mxCell id="ejnH0SQuWGHS84jdJQjX-83" value="สร้างข้อมูล ActivityLog&lt;span style=&quot;font-size: medium; text-align: start;&quot;&gt;&lt;/span&gt;" style="rounded=1;whiteSpace=wrap;html=1;" vertex="1" parent="1">
          <mxGeometry x="682.5" y="860" width="77.5" height="40" as="geometry" />
        </mxCell>
        <mxCell id="ejnH0SQuWGHS84jdJQjX-84" style="edgeStyle=orthogonalEdgeStyle;rounded=0;orthogonalLoop=1;jettySize=auto;html=1;" edge="1" parent="1" source="ejnH0SQuWGHS84jdJQjX-85" target="ejnH0SQuWGHS84jdJQjX-81">
          <mxGeometry relative="1" as="geometry" />
        </mxCell>
        <mxCell id="ejnH0SQuWGHS84jdJQjX-85" value="บันทึกข้อมูล" style="rounded=1;whiteSpace=wrap;html=1;" vertex="1" parent="1">
          <mxGeometry x="790" y="860" width="77.5" height="40" as="geometry" />
        </mxCell>
        <mxCell id="ejnH0SQuWGHS84jdJQjX-86" style="edgeStyle=orthogonalEdgeStyle;rounded=0;orthogonalLoop=1;jettySize=auto;html=1;entryX=1;entryY=0.5;entryDx=0;entryDy=0;" edge="1" parent="1" source="ejnH0SQuWGHS84jdJQjX-88" target="ejnH0SQuWGHS84jdJQjX-121">
          <mxGeometry relative="1" as="geometry">
            <Array as="points">
              <mxPoint x="454" y="1321" />
            </Array>
          </mxGeometry>
        </mxCell>
        <mxCell id="ejnH0SQuWGHS84jdJQjX-87" value="ไม่" style="edgeLabel;html=1;align=center;verticalAlign=middle;resizable=0;points=[];" vertex="1" connectable="0" parent="ejnH0SQuWGHS84jdJQjX-86">
          <mxGeometry x="-0.6813" y="-1" relative="1" as="geometry">
            <mxPoint as="offset" />
          </mxGeometry>
        </mxCell>
        <mxCell id="ejnH0SQuWGHS84jdJQjX-88" value="Picture?" style="rhombus;whiteSpace=wrap;html=1;" vertex="1" parent="1">
          <mxGeometry x="423.72" y="850" width="60" height="60" as="geometry" />
        </mxCell>
        <mxCell id="ejnH0SQuWGHS84jdJQjX-89" style="edgeStyle=orthogonalEdgeStyle;rounded=0;orthogonalLoop=1;jettySize=auto;html=1;entryX=0.5;entryY=0;entryDx=0;entryDy=0;" edge="1" parent="1" source="ejnH0SQuWGHS84jdJQjX-88" target="ejnH0SQuWGHS84jdJQjX-94">
          <mxGeometry relative="1" as="geometry">
            <mxPoint x="453.72" y="945" as="targetPoint" />
          </mxGeometry>
        </mxCell>
        <mxCell id="ejnH0SQuWGHS84jdJQjX-90" value="ใช่" style="edgeLabel;html=1;align=center;verticalAlign=middle;resizable=0;points=[];" vertex="1" connectable="0" parent="ejnH0SQuWGHS84jdJQjX-89">
          <mxGeometry x="-0.1526" y="1" relative="1" as="geometry">
            <mxPoint as="offset" />
          </mxGeometry>
        </mxCell>
        <mxCell id="ejnH0SQuWGHS84jdJQjX-91" value="สิ้นสุด" style="ellipse;whiteSpace=wrap;html=1;" vertex="1" parent="1">
          <mxGeometry x="367" y="1550" width="100" height="50" as="geometry" />
        </mxCell>
        <mxCell id="ejnH0SQuWGHS84jdJQjX-92" style="edgeStyle=orthogonalEdgeStyle;rounded=0;orthogonalLoop=1;jettySize=auto;html=1;" edge="1" parent="1" source="ejnH0SQuWGHS84jdJQjX-93" target="ejnH0SQuWGHS84jdJQjX-91">
          <mxGeometry relative="1" as="geometry">
            <Array as="points">
              <mxPoint x="150" y="1575" />
              <mxPoint x="150" y="1575" />
            </Array>
          </mxGeometry>
        </mxCell>
        <mxCell id="ejnH0SQuWGHS84jdJQjX-93" value="1" style="ellipse;whiteSpace=wrap;html=1;aspect=fixed;" vertex="1" parent="1">
          <mxGeometry x="61.38" y="1550" width="50" height="50" as="geometry" />
        </mxCell>
        <mxCell id="ejnH0SQuWGHS84jdJQjX-94" value="ไฟล&lt;br&gt;รูปภาพ ?" style="rhombus;whiteSpace=wrap;html=1;" vertex="1" parent="1">
          <mxGeometry x="307.6" y="910" width="65" height="65" as="geometry" />
        </mxCell>
        <mxCell id="ejnH0SQuWGHS84jdJQjX-95" style="edgeStyle=orthogonalEdgeStyle;rounded=0;orthogonalLoop=1;jettySize=auto;html=1;" edge="1" parent="1" source="ejnH0SQuWGHS84jdJQjX-97" target="ejnH0SQuWGHS84jdJQjX-119">
          <mxGeometry relative="1" as="geometry">
            <mxPoint x="383.2249999999999" y="1127.5" as="targetPoint" />
          </mxGeometry>
        </mxCell>
        <mxCell id="ejnH0SQuWGHS84jdJQjX-96" value="ไม่" style="edgeLabel;html=1;align=center;verticalAlign=middle;resizable=0;points=[];" vertex="1" connectable="0" parent="ejnH0SQuWGHS84jdJQjX-95">
          <mxGeometry x="-0.6238" y="2" relative="1" as="geometry">
            <mxPoint as="offset" />
          </mxGeometry>
        </mxCell>
        <mxCell id="ejnH0SQuWGHS84jdJQjX-97" value="ขนาดไฟล&lt;br&gt;&amp;nbsp;&amp;gt; 50mb ?" style="rhombus;whiteSpace=wrap;html=1;" vertex="1" parent="1">
          <mxGeometry x="300.1" y="997.5" width="80" height="70" as="geometry" />
        </mxCell>
        <mxCell id="ejnH0SQuWGHS84jdJQjX-98" value="" style="edgeStyle=orthogonalEdgeStyle;rounded=0;orthogonalLoop=1;jettySize=auto;html=1;" edge="1" parent="1" source="ejnH0SQuWGHS84jdJQjX-94" target="ejnH0SQuWGHS84jdJQjX-97">
          <mxGeometry relative="1" as="geometry">
            <Array as="points">
              <mxPoint x="339.1" y="995.5" />
              <mxPoint x="340.1" y="995.5" />
            </Array>
          </mxGeometry>
        </mxCell>
        <mxCell id="ejnH0SQuWGHS84jdJQjX-99" value="ใช่" style="edgeLabel;html=1;align=center;verticalAlign=middle;resizable=0;points=[];" vertex="1" connectable="0" parent="ejnH0SQuWGHS84jdJQjX-98">
          <mxGeometry x="0.4745" y="1" relative="1" as="geometry">
            <mxPoint as="offset" />
          </mxGeometry>
        </mxCell>
        <mxCell id="ejnH0SQuWGHS84jdJQjX-100" value="rerturn Error Code 043&lt;span style=&quot;font-size: medium; text-align: start;&quot;&gt;&lt;/span&gt;" style="rounded=1;whiteSpace=wrap;html=1;" vertex="1" parent="1">
          <mxGeometry x="113.45000000000002" y="992.5" width="77.5" height="40" as="geometry" />
        </mxCell>
        <mxCell id="ejnH0SQuWGHS84jdJQjX-101" value="สร้างข้อมูล ActivityLog&lt;span style=&quot;font-size: medium; text-align: start;&quot;&gt;&lt;/span&gt;" style="rounded=1;whiteSpace=wrap;html=1;" vertex="1" parent="1">
          <mxGeometry x="205.10000000000002" y="922.5" width="77.5" height="40" as="geometry" />
        </mxCell>
        <mxCell id="ejnH0SQuWGHS84jdJQjX-102" style="edgeStyle=orthogonalEdgeStyle;rounded=0;orthogonalLoop=1;jettySize=auto;html=1;" edge="1" parent="1" source="ejnH0SQuWGHS84jdJQjX-94" target="ejnH0SQuWGHS84jdJQjX-101">
          <mxGeometry relative="1" as="geometry" />
        </mxCell>
        <mxCell id="ejnH0SQuWGHS84jdJQjX-103" value="ไม่" style="edgeLabel;html=1;align=center;verticalAlign=middle;resizable=0;points=[];" vertex="1" connectable="0" parent="ejnH0SQuWGHS84jdJQjX-102">
          <mxGeometry x="0.5378" relative="1" as="geometry">
            <mxPoint as="offset" />
          </mxGeometry>
        </mxCell>
        <mxCell id="ejnH0SQuWGHS84jdJQjX-104" value="" style="edgeStyle=orthogonalEdgeStyle;rounded=0;orthogonalLoop=1;jettySize=auto;html=1;entryX=0.5;entryY=0;entryDx=0;entryDy=0;" edge="1" parent="1" source="ejnH0SQuWGHS84jdJQjX-105" target="ejnH0SQuWGHS84jdJQjX-100">
          <mxGeometry relative="1" as="geometry" />
        </mxCell>
        <mxCell id="ejnH0SQuWGHS84jdJQjX-105" value="บันทึกข้อมูล&lt;span style=&quot;font-size: medium; text-align: start;&quot;&gt;&lt;/span&gt;" style="rounded=1;whiteSpace=wrap;html=1;" vertex="1" parent="1">
          <mxGeometry x="99.10000000000002" y="922.5" width="77.5" height="40" as="geometry" />
        </mxCell>
        <mxCell id="ejnH0SQuWGHS84jdJQjX-106" value="" style="edgeStyle=orthogonalEdgeStyle;rounded=0;orthogonalLoop=1;jettySize=auto;html=1;" edge="1" parent="1" source="ejnH0SQuWGHS84jdJQjX-101" target="ejnH0SQuWGHS84jdJQjX-105">
          <mxGeometry relative="1" as="geometry" />
        </mxCell>
        <mxCell id="ejnH0SQuWGHS84jdJQjX-107" value="rerturn Error Code 044&lt;span style=&quot;font-size: medium; text-align: start;&quot;&gt;&lt;/span&gt;" style="rounded=1;whiteSpace=wrap;html=1;" vertex="1" parent="1">
          <mxGeometry x="113.45000000000002" y="1137.5" width="77.5" height="40" as="geometry" />
        </mxCell>
        <mxCell id="ejnH0SQuWGHS84jdJQjX-108" value="สร้างข้อมูล ActivityLog&lt;span style=&quot;font-size: medium; text-align: start;&quot;&gt;&lt;/span&gt;" style="rounded=1;whiteSpace=wrap;html=1;" vertex="1" parent="1">
          <mxGeometry x="215.10000000000002" y="1067.5" width="77.5" height="40" as="geometry" />
        </mxCell>
        <mxCell id="ejnH0SQuWGHS84jdJQjX-109" style="edgeStyle=orthogonalEdgeStyle;rounded=0;orthogonalLoop=1;jettySize=auto;html=1;entryX=0.5;entryY=0;entryDx=0;entryDy=0;" edge="1" parent="1" source="ejnH0SQuWGHS84jdJQjX-97" target="ejnH0SQuWGHS84jdJQjX-108">
          <mxGeometry relative="1" as="geometry" />
        </mxCell>
        <mxCell id="ejnH0SQuWGHS84jdJQjX-110" value="ใช่" style="edgeLabel;html=1;align=center;verticalAlign=middle;resizable=0;points=[];" vertex="1" connectable="0" parent="ejnH0SQuWGHS84jdJQjX-109">
          <mxGeometry x="-0.6182" y="-1" relative="1" as="geometry">
            <mxPoint as="offset" />
          </mxGeometry>
        </mxCell>
        <mxCell id="ejnH0SQuWGHS84jdJQjX-111" style="edgeStyle=orthogonalEdgeStyle;rounded=0;orthogonalLoop=1;jettySize=auto;html=1;" edge="1" parent="1" source="ejnH0SQuWGHS84jdJQjX-112" target="ejnH0SQuWGHS84jdJQjX-107">
          <mxGeometry relative="1" as="geometry" />
        </mxCell>
        <mxCell id="ejnH0SQuWGHS84jdJQjX-112" value="บันทึกข้อมูล&lt;span style=&quot;font-size: medium; text-align: start;&quot;&gt;&lt;/span&gt;" style="rounded=1;whiteSpace=wrap;html=1;" vertex="1" parent="1">
          <mxGeometry x="113.45000000000002" y="1067.5" width="77.5" height="40" as="geometry" />
        </mxCell>
        <mxCell id="ejnH0SQuWGHS84jdJQjX-113" style="edgeStyle=orthogonalEdgeStyle;rounded=0;orthogonalLoop=1;jettySize=auto;html=1;entryX=1;entryY=0.5;entryDx=0;entryDy=0;" edge="1" parent="1" source="ejnH0SQuWGHS84jdJQjX-108" target="ejnH0SQuWGHS84jdJQjX-112">
          <mxGeometry relative="1" as="geometry" />
        </mxCell>
        <mxCell id="ejnH0SQuWGHS84jdJQjX-114" style="edgeStyle=orthogonalEdgeStyle;rounded=0;orthogonalLoop=1;jettySize=auto;html=1;" edge="1" parent="1" source="ejnH0SQuWGHS84jdJQjX-115" target="ejnH0SQuWGHS84jdJQjX-91">
          <mxGeometry relative="1" as="geometry">
            <Array as="points">
              <mxPoint x="230" y="1530" />
              <mxPoint x="380" y="1530" />
            </Array>
          </mxGeometry>
        </mxCell>
        <mxCell id="ejnH0SQuWGHS84jdJQjX-115" value="3" style="ellipse;whiteSpace=wrap;html=1;aspect=fixed;" vertex="1" parent="1">
          <mxGeometry x="205.10000000000002" y="1322.5" width="50" height="50" as="geometry" />
        </mxCell>
        <mxCell id="ejnH0SQuWGHS84jdJQjX-116" style="edgeStyle=orthogonalEdgeStyle;rounded=0;orthogonalLoop=1;jettySize=auto;html=1;entryX=0;entryY=0.5;entryDx=0;entryDy=0;" edge="1" parent="1" source="ejnH0SQuWGHS84jdJQjX-100" target="ejnH0SQuWGHS84jdJQjX-115">
          <mxGeometry relative="1" as="geometry">
            <Array as="points">
              <mxPoint x="61.379999999999995" y="1012.5" />
              <mxPoint x="61.379999999999995" y="1267.5" />
              <mxPoint x="121.38" y="1267.5" />
              <mxPoint x="121.38" y="1347.5" />
            </Array>
          </mxGeometry>
        </mxCell>
        <mxCell id="ejnH0SQuWGHS84jdJQjX-117" style="edgeStyle=orthogonalEdgeStyle;rounded=0;orthogonalLoop=1;jettySize=auto;html=1;entryX=0;entryY=0;entryDx=0;entryDy=0;" edge="1" parent="1" source="ejnH0SQuWGHS84jdJQjX-107" target="ejnH0SQuWGHS84jdJQjX-115">
          <mxGeometry relative="1" as="geometry" />
        </mxCell>
        <mxCell id="ejnH0SQuWGHS84jdJQjX-118" style="edgeStyle=orthogonalEdgeStyle;rounded=0;orthogonalLoop=1;jettySize=auto;html=1;" edge="1" parent="1" source="ejnH0SQuWGHS84jdJQjX-119">
          <mxGeometry relative="1" as="geometry">
            <mxPoint x="385" y="1190.0000000000002" as="targetPoint" />
          </mxGeometry>
        </mxCell>
        <mxCell id="ejnH0SQuWGHS84jdJQjX-119" value="อัปโหลดไฟล์" style="rounded=1;whiteSpace=wrap;html=1;" vertex="1" parent="1">
          <mxGeometry x="285.1" y="1120" width="110" height="42" as="geometry" />
        </mxCell>
        <mxCell id="ejnH0SQuWGHS84jdJQjX-120" value="" style="group" vertex="1" connectable="0" parent="1">
          <mxGeometry x="336.88" y="1300" width="96.25" height="177.5" as="geometry" />
        </mxCell>
        <mxCell id="ejnH0SQuWGHS84jdJQjX-121" value="สร้างข้อมูลของการประชุมผู้ถือหุ้น&lt;span style=&quot;font-size: medium; text-align: start;&quot;&gt;&lt;/span&gt;" style="rounded=1;whiteSpace=wrap;html=1;" vertex="1" parent="ejnH0SQuWGHS84jdJQjX-120">
          <mxGeometry x="-5" width="106.25" height="42.5" as="geometry" />
        </mxCell>
        <mxCell id="ejnH0SQuWGHS84jdJQjX-122" value="สร้างข้อมูล ActivityLog&lt;span style=&quot;font-size: medium; text-align: start;&quot;&gt;&lt;/span&gt;" style="rounded=1;whiteSpace=wrap;html=1;" vertex="1" parent="ejnH0SQuWGHS84jdJQjX-120">
          <mxGeometry x="6.25" y="67.5" width="77.5" height="40" as="geometry" />
        </mxCell>
        <mxCell id="ejnH0SQuWGHS84jdJQjX-123" value="" style="edgeStyle=orthogonalEdgeStyle;rounded=0;orthogonalLoop=1;jettySize=auto;html=1;entryX=0.543;entryY=-0.009;entryDx=0;entryDy=0;entryPerimeter=0;" edge="1" parent="ejnH0SQuWGHS84jdJQjX-120" source="ejnH0SQuWGHS84jdJQjX-121" target="ejnH0SQuWGHS84jdJQjX-122">
          <mxGeometry relative="1" as="geometry" />
        </mxCell>
        <mxCell id="ejnH0SQuWGHS84jdJQjX-124" value="บันทึกข้อมูล&lt;span style=&quot;font-size: medium; text-align: start;&quot;&gt;&lt;/span&gt;" style="rounded=1;whiteSpace=wrap;html=1;" vertex="1" parent="ejnH0SQuWGHS84jdJQjX-120">
          <mxGeometry x="6.25" y="137.5" width="77.5" height="40" as="geometry" />
        </mxCell>
        <mxCell id="ejnH0SQuWGHS84jdJQjX-125" value="" style="edgeStyle=orthogonalEdgeStyle;rounded=0;orthogonalLoop=1;jettySize=auto;html=1;" edge="1" parent="ejnH0SQuWGHS84jdJQjX-120" source="ejnH0SQuWGHS84jdJQjX-122" target="ejnH0SQuWGHS84jdJQjX-124">
          <mxGeometry relative="1" as="geometry" />
        </mxCell>
        <mxCell id="ejnH0SQuWGHS84jdJQjX-126" style="edgeStyle=orthogonalEdgeStyle;rounded=0;orthogonalLoop=1;jettySize=auto;html=1;entryX=0;entryY=1;entryDx=0;entryDy=0;" edge="1" parent="1" source="ejnH0SQuWGHS84jdJQjX-130" target="ejnH0SQuWGHS84jdJQjX-88">
          <mxGeometry relative="1" as="geometry">
            <Array as="points">
              <mxPoint x="430" y="1223" />
              <mxPoint x="430" y="910" />
              <mxPoint x="439" y="910" />
            </Array>
          </mxGeometry>
        </mxCell>
        <mxCell id="ejnH0SQuWGHS84jdJQjX-127" value="ใช่" style="edgeLabel;html=1;align=center;verticalAlign=middle;resizable=0;points=[];" vertex="1" connectable="0" parent="ejnH0SQuWGHS84jdJQjX-126">
          <mxGeometry x="-0.8996" relative="1" as="geometry">
            <mxPoint as="offset" />
          </mxGeometry>
        </mxCell>
        <mxCell id="ejnH0SQuWGHS84jdJQjX-128" style="edgeStyle=orthogonalEdgeStyle;rounded=0;orthogonalLoop=1;jettySize=auto;html=1;" edge="1" parent="1" source="ejnH0SQuWGHS84jdJQjX-130" target="ejnH0SQuWGHS84jdJQjX-121">
          <mxGeometry relative="1" as="geometry" />
        </mxCell>
        <mxCell id="ejnH0SQuWGHS84jdJQjX-129" value="ไม่" style="edgeLabel;html=1;align=center;verticalAlign=middle;resizable=0;points=[];" vertex="1" connectable="0" parent="ejnH0SQuWGHS84jdJQjX-128">
          <mxGeometry x="-0.1659" relative="1" as="geometry">
            <mxPoint y="2" as="offset" />
          </mxGeometry>
        </mxCell>
        <mxCell id="ejnH0SQuWGHS84jdJQjX-130" value="มีไฟล&lt;br&gt;รูปภาพอีกไหม ?" style="rhombus;whiteSpace=wrap;html=1;" vertex="1" parent="1">
          <mxGeometry x="352.5" y="1190" width="65" height="65" as="geometry" />
        </mxCell>
        <mxCell id="ejnH0SQuWGHS84jdJQjX-131" value="" style="edgeStyle=orthogonalEdgeStyle;rounded=0;orthogonalLoop=1;jettySize=auto;html=1;" edge="1" parent="1" source="ejnH0SQuWGHS84jdJQjX-124" target="ejnH0SQuWGHS84jdJQjX-91">
          <mxGeometry relative="1" as="geometry" />
        </mxCell>
      </root>
    </mxGraphModel>
  </diagram>
  <diagram id="Cx8IANWfIU1-qjpUdaKZ" name="Page-4">
    <mxGraphModel dx="1434" dy="764" grid="1" gridSize="10" guides="1" tooltips="1" connect="1" arrows="1" fold="1" page="1" pageScale="1" pageWidth="850" pageHeight="1100" math="0" shadow="0">
      <root>
        <mxCell id="0" />
        <mxCell id="1" parent="0" />
      </root>
    </mxGraphModel>
  </diagram>
</mxfile>
